<?xml version="1.0" encoding="utf-8"?>
<!-- Generator: Adobe Illustrator 16.0.0, SVG Export Plug-In . SVG Version: 6.00 Build 0)  -->
<svg version="1.2" baseProfile="tiny" xmlns="http://www.w3.org/2000/svg" xmlns:xlink="http://www.w3.org/1999/xlink" x="0px"
	 y="0px" width="500px" height="500px" viewBox="0 0 500 500" xml:space="preserve">
<g id="BACKGROUND_2">
</g>
<g id="BACKGROUND_1">
	<g>
		<path fill="#FFFFFF" d="M491.551,313.934V195.37l8.449-8.439V0h-22.346l21.896,21.896L481.337,40.11l4.767,4.766l-15.715,15.715
			V44.876l-15.123-15.122l15.123-15.124l7.266,7.266V0H0v124.732l4.346,4.346v-21.896l21.896,21.896L4.346,150.975v-21.896
			L0,133.424V500h479.186v-10.92l-37.715-37.714l37.625-37.625l0.09,75.339v-29.813l20.365,20.366L479.186,500H500V305.485
			L491.551,313.934z M15.294,103.544v-14.88l7.44,7.44L15.294,103.544z M430.196,237.678h1.131v4.225h0.039
			c0.233-0.338,0.468-0.65,0.688-0.936l2.679-3.289h1.404l-3.173,3.718l3.42,5.044h-1.34l-2.886-4.303l-0.832,0.962v3.341h-1.131
			V237.678z M253.062,103.606V85.952l17.654,17.654l-17.654,17.653v18.474l-18.063-18.063L253.062,103.606z M144.823,40.347v36.127
			L126.761,58.41L144.823,40.347z M113.116,11.639l7.266,7.266l-7.266,7.266V11.639z M107.222,31.399v36.357L89.043,49.578
			L107.222,31.399z M89.042,49.578l0.001,42.404L67.84,70.779L89.042,49.578z M40.652,130.992l0.001,44.979l-22.49-22.49
			L40.652,130.992z M36.163,184.531v13.943l-9.238,9.237l0.037-13.981L36.163,184.531z M8.821,251.835l12.892,12.893l0.054,15.215
			L8.876,267.052L8.821,251.835z M19.983,408.067v-23.122l11.561,11.561L19.983,408.067z M62.683,447.199l-0.04-10.735l9.095,9.094
			l0.04,10.736L62.683,447.199z M140.648,454.234l-28.478-28.478l28.478-28.478V454.234z M140.889,396.787l-0.101-36.686
			l26.445,26.445l0.101,36.684L140.889,396.787z M169.768,379.416l-18.267-18.266l18.267-18.268V379.416z M275.543,308.756
			l-0.033-9.365l7.935,7.936l0.033,9.363L275.543,308.756z M287.381,243.594l-0.052-14.473l-21.61,21.612v-43.96l-0.074-0.074v0.075
			l0.002-0.002l0.002,43.973l11.516,11.516l-11.516,11.454l0.001,14.061l-9.567,9.566V283.23l-10.913,10.855v0.02l12.88,12.881
			v15.215l-12.88-12.974v14.883l1.641-1.639v61.536l15.366,15.367l-15.366,15.367v0.013l-5.559,5.559v-68.421l-46.091-46.092
			l-0.006,0.006l44.071,44.072l-44.077,44.076v29.508l-14.754-14.754l14.754-14.754l-14.754-14.754l14.661-14.661l-14.661-14.661
			l14.663-14.662l-14.661-14.661l-1.916,1.915l-0.101-75.527l-0.001,47.17l0.094,28.309l-23.657-23.658l-0.021-27.007l-0.001,27.023
			l23.657,23.657l-37.664,37.664l-0.119-75.441l-0.002-0.002l0.002-0.002v-0.002l-0.002,0.002v-75.427l37.625-37.625v-0.001
			l-17.892,17.892l-19.724,19.723v-31.729l-0.035-0.035v14.268l0.002,92.896l0.001,112.663l-20.547,20.547v-41.094l-35.274-35.274
			l0,0l17.305,17.306v8.094l0.015-0.015v121.518l-17.516-17.516l0.001-8.094l-0.015,0.015v-80.093l-29.76,29.76l-0.001-61.127
			l29.761,29.76l0,0l-37.278-37.278l0.001,19.969l-27.509-27.508l9.984-9.984L9.263,305.718l20.547-20.547v-68.754l-0.085-0.085
			L9.514,236.543v-40.421l20.211,20.21l0.085-0.085v-0.005l0.002,0.002l12.502-12.502l0-40.477l9.565-9.554v1.113l0.002-1.134V58.41
			l47.808,47.808l-0.001,44.552l15.247,15.248l0.001-0.001l-15.034-15.034l15.034-15.035v-13.343V64.838V51.224l5.559-5.552
			l0,24.817l24.441,24.847l17.746-17.746v10.973l15.614-15.613l28.939-28.94v38.715l8.133-8.133v42.354l0.04,15.651l47.69,47.689
			l0.02-0.02v-19.754l9.877,9.876l0.01-0.01v-19.753l9.877,9.875l0.01-0.01v-19.752l9.887,9.887l-5.08,5.08v73.044l12.52,12.521
			l0.055,15.215L287.381,243.594z M309.598,177.712l-21.896,21.896v-43.793L309.598,177.712z M309.6,305.585l-0.002-40.422
			l20.212,20.211L309.6,305.585z M329.81,232.7l0.001-23.12l11.56,11.56L329.81,232.7z M378.742,261.416l-0.204-3.549
			c-0.06-1.129-0.132-2.482-0.12-3.49h-0.035c-0.276,0.947-0.612,1.955-1.02,3.07l-1.428,3.922h-0.791l-1.308-3.85
			c-0.384-1.141-0.708-2.184-0.936-3.143h-0.024c-0.023,1.008-0.084,2.361-0.156,3.574l-0.215,3.465h-0.996l0.564-8.084h1.331
			l1.379,3.91c0.336,0.996,0.612,1.883,0.815,2.723h0.036c0.204-0.814,0.491-1.703,0.852-2.723l1.439-3.91h1.331l0.504,8.084
			H378.742z M388.909,237.795c0.494-0.104,1.273-0.182,2.066-0.182c1.132,0,1.859,0.195,2.405,0.637
			c0.455,0.338,0.729,0.858,0.729,1.547c0,0.845-0.56,1.586-1.482,1.924v0.026c0.832,0.208,1.808,0.897,1.808,2.197
			c0,0.754-0.3,1.326-0.741,1.755c-0.611,0.559-1.6,0.819-3.029,0.819c-0.78,0-1.378-0.052-1.755-0.104V237.795z M395.436,261.416
			l-0.864-2.543h-2.866l-0.84,2.543h-1.079l2.747-8.084h1.259l2.759,8.084H395.436z M397.524,82.067l9.095,9.094l0.04,10.736
			l-9.095-9.095L397.524,82.067z M407.809,261.416h-1.043v-8.084h1.043V261.416z M408.969,242.787c0,2.691-1.417,3.796-3.315,3.796
			c-1.794,0-3.146-1.027-3.146-3.744v-5.161h1.145v5.187c0,1.963,0.871,2.795,2.041,2.795c1.3,0,2.132-0.858,2.132-2.795v-5.187
			h1.145V242.787z M417.496,237.678h1.131v7.813h3.744v0.949h-4.875V237.678z M423.155,261.416h-4.498v-8.084h1.044v7.209h3.454
			V261.416z M425.346,429.387l0.001-23.12l11.561,11.56L425.346,429.387z M437.891,261.416h-4.546v-8.084h4.366v0.877h-3.322v2.555
			h3.143v0.863h-3.143v2.914h3.502V261.416z M452.459,261.416c-0.133-0.227-0.313-0.924-0.54-1.93
			c-0.24-1.115-0.672-1.535-1.619-1.572h-0.983v3.502h-1.044v-7.975c0.528-0.109,1.283-0.168,2.003-0.168
			c1.115,0,1.835,0.203,2.339,0.658c0.408,0.361,0.636,0.912,0.636,1.535c0,1.068-0.672,1.775-1.523,2.064v0.035
			c0.624,0.217,0.996,0.791,1.188,1.631c0.264,1.127,0.456,1.908,0.624,2.219H452.459z"/>
		<polygon fill="#FFFFFF" points="145.764,168.337 145.768,168.341 160.397,153.712 160.398,189.494 160.398,153.702 
			152.793,161.308 		"/>
		<polygon fill="#FFFFFF" points="161.294,152.807 160.398,153.702 160.399,153.703 178.29,135.813 178.29,135.811 169.794,144.307 
					"/>
		<polygon fill="#FFFFFF" points="195.148,305.813 195.147,335.126 195.148,335.125 195.147,364.633 195.147,393.955 
			195.149,305.812 		"/>
		<rect x="209.266" y="269.746" fill="#FFFFFF" width="0.003" height="18.176"/>
		<polygon fill="#FFFFFF" points="178.296,129.084 178.304,129.092 178.296,72.949 178.296,104.378 		"/>
		<polygon fill="#FFFFFF" points="84.821,303.999 103.04,322.219 103.182,322.077 84.821,303.718 		"/>
		<rect x="121.911" y="265.888" fill="#FFFFFF" width="0.001" height="37.458"/>
		<polygon fill="#FFFFFF" points="201.689,271.007 193.724,262.78 178.379,246.943 201.689,271.012 		"/>
		<path fill="#FFFFFF" d="M450.348,254.076c-0.504,0-0.863,0.049-1.031,0.096v2.951h1.067c1.115,0,1.823-0.611,1.823-1.535
			C452.207,254.545,451.451,254.088,450.348,254.076z"/>
		
			<rect x="168.058" y="131.563" transform="matrix(-0.7071 -0.7071 0.7071 -0.7071 204.1081 347.6629)" fill="#FFFFFF" width="11.988" height="0"/>
		<polygon fill="#FFFFFF" points="165.961,116.711 165.961,116.712 178.296,104.378 162.682,88.764 162.682,88.766 178.295,104.378 
					"/>
		<rect x="153.511" y="172.869" fill="#FFFFFF" width="0.001" height="19.479"/>
		<polygon fill="#FFFFFF" points="215.526,255.28 215.55,255.257 215.539,248.437 215.51,248.466 		"/>
		<polygon fill="#FFFFFF" points="215.491,240.857 215.499,244.03 215.532,243.998 215.521,237.179 215.491,237.208 		"/>
		<path fill="#FFFFFF" d="M393.145,254.256h-0.024c-0.12,0.48-0.251,0.973-0.407,1.463l-0.792,2.34h2.435l-0.791-2.326
			C393.385,255.203,393.264,254.725,393.145,254.256z"/>
		<path fill="#FFFFFF" d="M393.238,243.931c0-1.196-1.027-1.69-2.263-1.69h-0.936v3.341c0.221,0.039,0.546,0.052,0.949,0.052
			C392.159,245.634,393.238,245.206,393.238,243.931z"/>
		<polygon fill="#FFFFFF" points="215.491,232.764 215.514,232.741 215.502,225.923 215.491,225.934 		"/>
		<polygon fill="#FFFFFF" points="215.491,219.188 215.504,214.645 215.491,214.657 		"/>
		<polygon fill="#FFFFFF" points="215.495,221.484 215.491,219.188 215.491,221.487 		"/>
		<polygon fill="#FFFFFF" points="215.536,203.338 215.491,203.383 215.491,210.212 215.517,210.187 		"/>
		<polygon fill="#FFFFFF" points="215.6,285.354 215.6,285.354 215.558,259.693 215.537,259.714 		"/>
		<path fill="#FFFFFF" d="M392.965,239.914c0-1.027-0.779-1.43-1.924-1.43c-0.52,0-0.819,0.039-1.001,0.078v2.821h1.027
			C392.263,241.383,392.965,240.759,392.965,239.914z"/>
		<rect x="250.663" y="228.096" fill="#FFFFFF" width="0" height="15.327"/>
		<polygon fill="#FFFFFF" points="84.821,302.979 84.821,302.979 103.182,284.618 		"/>
		<polygon fill="#FFFFFF" points="245.169,286.768 245.21,255.763 245.169,255.804 		"/>
		<polygon fill="#FFFFFF" points="477.654,36.427 477.654,21.896 470.389,29.162 		"/>
		<polygon fill="#FFFFFF" points="215.525,198.907 215.491,189.582 215.491,198.94 		"/>
		<polygon fill="#FFFFFF" points="140.668,284.655 154.793,270.53 154.793,270.529 178.379,246.943 140.667,284.654 		"/>
		<polygon fill="#FFFFFF" points="193.922,219.188 193.724,262.78 193.922,219.188 		"/>
		<polygon fill="#DE8524" points="140.64,155.593 140.64,156.46 141.073,156.026 		"/>
		<polygon fill="#DE8524" points="165.961,116.711 162.581,120.092 165.961,116.712 		"/>
		<polygon fill="#DE8524" points="134.699,113.55 136.016,114.867 140.64,110.243 140.64,119.491 146.603,125.454 146.65,139.742 
			140.64,133.731 140.64,141.352 146.604,147.315 146.614,150.486 152.793,144.307 161.294,135.806 169.794,127.306 
			169.813,127.325 169.813,127.324 162.581,120.092 162.58,120.093 162.58,113.448 144.701,95.57 144.936,95.336 120.495,70.489 
			120.495,117.046 114.936,122.604 114.936,135.948 134.701,116.182 		"/>
		<polygon fill="#A5AC33" points="15.294,103.544 22.734,96.104 15.294,88.664 		"/>
		<polygon fill="#E0982B" points="135.792,178.309 135.792,172.606 134.71,171.524 134.699,157.273 137.263,159.837 140.64,156.46 
			140.64,155.593 134.71,149.663 134.699,135.411 140.64,141.352 140.64,133.731 134.709,127.801 134.701,116.182 114.936,135.948 
			99.901,150.982 114.936,166.017 114.936,166.017 140.64,191.722 140.64,177.454 138.643,175.458 		"/>
		<polygon fill="#E0982B" points="140.64,110.243 136.016,114.867 140.64,119.491 		"/>
		<polygon fill="#E8B032" points="89.637,141.145 89.637,173.129 84.734,178.031 84.734,191.264 112.916,219.445 114.936,217.425 
			114.936,182.831 114.936,166.017 114.936,166.017 114.935,166.018 99.688,150.77 99.688,151.195 		"/>
		<polygon fill="#E8E544" points="84.734,236.294 84.733,236.295 84.733,249.999 86.903,252.168 86.892,254.996 84.733,252.838 
			84.733,257.2 86.873,259.34 86.862,262.167 84.733,260.038 84.733,264.4 86.845,266.512 86.832,269.339 84.733,267.24 
			84.733,271.167 84.82,271.254 84.82,271.688 86.815,273.683 86.803,276.51 84.82,274.527 84.82,278.889 86.785,280.854 
			86.773,283.682 84.82,281.729 84.82,286.089 86.757,288.025 86.745,290.853 84.821,288.928 84.821,302.979 103.182,284.618 
			121.912,265.888 105.719,249.694 105.485,249.928 105.485,249.461 94.192,238.168 112.916,219.445 84.734,191.264 		"/>
		<polygon fill="#84C28F" points="29.81,216.242 29.81,216.247 29.812,216.245 		"/>
		<polygon fill="#84C28F" points="75.983,280.091 74.047,278.154 74.059,275.328 77.402,278.672 79.583,276.491 74.077,270.984 
			74.089,268.157 81.003,275.071 83.184,272.891 74.105,263.813 74.117,260.985 84.604,271.471 84.733,271.341 67.21,253.818 
			49.993,236.601 42.314,244.281 42.314,228.922 29.81,216.417 29.81,285.171 29.81,326.265 47.332,308.742 		"/>
		<polygon fill="#84C28F" points="84.733,271.167 84.733,271.341 84.82,271.254 		"/>
		<polygon fill="#5D5D5D" points="105.719,249.694 105.485,249.461 105.485,249.928 		"/>
		<polygon fill="#70A45B" points="9.514,236.543 29.725,216.332 9.514,196.122 		"/>
		<polygon fill="#A62656" points="309.6,305.585 329.81,285.374 309.598,265.163 		"/>
		<polygon fill="#DAC73A" points="89.042,49.578 67.84,70.779 89.043,91.982 		"/>
		<polygon fill="#4A6ECE" points="121.912,303.347 140.642,284.617 121.913,265.889 		"/>
		<polygon fill="#AEC161" points="121.911,303.348 121.912,265.888 103.182,284.618 		"/>
		<polygon fill="#4A6ECE" points="103.182,322.077 121.911,303.348 103.182,284.618 		"/>
		<polygon fill="#2A3480" points="84.821,340.438 103.04,322.219 84.821,303.999 		"/>
		<polygon fill="#AEC161" points="84.821,302.979 84.821,303.718 103.182,322.077 103.182,284.618 		"/>
		<polygon fill="#2A418E" points="120.096,417.827 140.643,397.28 120.096,376.733 		"/>
		<polygon fill="#B32149" points="329.81,232.7 341.37,221.14 329.811,209.58 		"/>
		<polygon fill="#B32149" points="425.346,429.387 436.907,417.826 425.347,406.267 		"/>
		<polygon fill="#3659BC" points="19.983,408.067 31.544,396.506 19.983,384.945 		"/>
		<polygon fill="#5489C0" points="9.263,305.718 29.81,326.265 29.81,285.171 		"/>
		<polygon fill="#2A3480" points="84.611,381.066 84.611,381.066 85.415,381.87 84.611,382.674 84.611,462.767 84.626,462.752 
			84.625,470.846 102.141,488.361 102.141,366.844 102.126,366.858 102.126,358.765 84.821,341.459 84.822,381.277 		"/>
		<polygon fill="#E17432" points="114.936,217.425 112.916,219.445 94.192,238.168 105.485,249.461 105.719,249.694 
			121.912,265.888 121.913,265.889 140.642,284.617 140.64,191.722 114.936,217.426 		"/>
		<polygon fill="#64A1D2" points="84.311,340.948 84.821,340.438 84.821,303.999 84.821,303.718 84.821,302.979 84.821,302.979 
			84.821,288.928 75.983,280.091 47.332,308.742 47.333,343.788 84.611,381.066 84.822,381.277 84.821,341.459 84.821,341.459 		"/>
		<polygon fill="#64A1D2" points="84.82,278.889 84.82,274.527 83.184,272.891 81.003,275.071 		"/>
		<polygon fill="#64A1D2" points="84.82,286.089 84.82,281.729 79.583,276.491 77.402,278.672 		"/>
		<polygon fill="#64A1D2" points="84.82,271.688 84.82,271.254 84.733,271.341 84.604,271.471 		"/>
		<polygon fill="#6E1939" points="262.176,399.375 246.81,384.008 246.81,414.742 		"/>
		<polygon fill="#ABCF5F" points="76.462,244.566 74.281,246.748 84.733,257.2 84.733,252.838 		"/>
		<polygon fill="#ABCF5F" points="77.88,243.148 84.733,249.999 84.733,236.295 		"/>
		<polygon fill="#ABCF5F" points="84.733,267.24 74.135,256.641 74.146,253.813 84.733,264.4 84.733,260.038 74.165,249.47 
			74.175,246.854 67.21,253.818 84.733,271.341 84.733,271.167 		"/>
		<polygon fill="#5890C0" points="29.81,326.265 19.825,336.249 47.334,363.757 47.333,343.788 47.332,308.742 		"/>
		<polygon fill="#CBDB42" points="42.314,203.743 29.812,216.245 29.81,216.247 29.725,216.332 29.81,216.417 42.314,228.922 		"/>
		<polygon fill="#CBDB42" points="74.175,246.854 74.176,246.643 74.281,246.748 76.462,244.566 74.193,242.298 74.205,239.475 
			77.88,243.148 84.733,236.295 84.734,236.294 84.734,191.264 84.734,178.031 51.879,210.883 51.879,234.715 49.993,236.601 
			67.21,253.818 		"/>
		<polygon fill="#E1782A" points="114.936,166.017 114.936,182.831 114.936,217.425 114.936,217.426 140.64,191.722 		"/>
		<polygon fill="#E3BC37" points="107.222,31.399 89.043,49.578 107.222,67.757 		"/>
		<polygon fill="#DFAE2E" points="113.116,11.639 113.116,26.17 120.382,18.904 		"/>
		<polygon fill="#A6C442" points="42.314,228.922 42.314,244.281 49.993,236.601 51.879,234.715 51.879,210.883 51.782,210.98 
			51.879,154.825 51.879,153.712 42.313,163.266 42.314,203.743 		"/>
		<polygon fill="#E4BD36" points="89.637,141.145 99.688,151.195 99.688,150.77 99.688,106.218 89.637,116.27 		"/>
		<polygon fill="#B3BA36" points="40.652,130.992 18.163,153.481 40.653,175.972 		"/>
		<polygon fill="#3658AE" points="84.611,381.066 54.851,351.307 54.852,412.434 84.611,382.674 85.415,381.87 		"/>
		<polygon fill="#3F3D8D" points="140.648,454.234 140.648,397.279 112.171,425.757 		"/>
		<polygon fill="#4D80C8" points="121.911,303.348 103.182,322.077 103.04,322.219 84.821,340.438 84.311,340.948 84.821,341.459 
			120.096,376.733 140.643,397.28 140.642,284.617 121.912,303.347 		"/>
		<polygon fill="#9B1F27" points="287.697,155.704 292.777,150.624 282.891,140.737 282.891,160.49 287.697,155.683 		"/>
		<polygon fill="#A41E32" points="273.004,150.624 273.004,170.377 282.881,160.5 		"/>
		<polygon fill="#B72D31" points="263.117,160.511 263.117,180.265 272.994,170.387 		"/>
		<polygon fill="#DACC3C" points="89.637,116.27 99.688,106.218 51.881,58.41 51.881,153.69 89.637,115.997 		"/>
		<polygon fill="#AC331E" points="270.716,103.606 253.062,85.952 253.062,103.606 253.062,121.26 		"/>
		<polygon fill="#A72145" points="265.719,206.772 265.719,250.732 287.329,229.121 287.326,228.381 		"/>
		<polygon fill="#B52B61" points="245.244,230.341 245.244,248.936 248.641,252.332 245.21,255.763 245.169,286.768 
			245.169,294.086 256.082,283.23 256.082,241.179 		"/>
		<polygon fill="#B52B61" points="277.164,262.261 265.648,250.745 265.648,273.715 		"/>
		<polygon fill="#6A206D" points="215.6,285.354 215.6,285.374 215.6,285.354 		"/>
		<polygon fill="#6A206D" points="215.589,285.363 215.6,285.374 215.589,285.363 		"/>
		<polygon fill="#6A206D" points="245.169,255.804 215.6,285.374 195.16,305.801 241.251,351.893 241.251,328.023 245.169,324.11 
			245.169,309.228 245.159,309.218 245.159,294.096 245.169,294.105 245.169,294.086 245.169,286.768 		"/>
		<polygon fill="#E28A2F" points="162.58,113.448 162.58,88.664 162.682,88.766 162.682,88.764 162.581,88.663 162.682,88.563 
			162.682,77.59 144.936,95.336 144.701,95.57 		"/>
		<polygon fill="#D37020" points="207.235,82.724 207.235,44.009 178.296,72.949 197.652,92.306 		"/>
		<polygon fill="#BA3A1E" points="207.235,101.889 215.351,110.004 215.368,116.944 215.368,74.591 207.235,82.724 197.652,92.306 
					"/>
		<polygon fill="#B9381E" points="253.062,121.26 253.062,103.606 234.999,121.67 253.062,139.733 		"/>
		<polygon fill="#D67122" points="162.682,88.764 178.296,104.378 178.296,72.949 162.682,88.563 162.581,88.663 		"/>
		<polygon fill="#D66825" points="165.961,116.712 162.581,120.092 169.813,127.324 178.29,135.801 178.29,129.078 178.296,129.084 
			178.296,104.378 		"/>
		<polygon fill="#CA3732" points="178.295,104.378 162.682,88.766 162.58,88.664 162.58,113.448 162.58,120.093 162.581,120.092 
			165.961,116.711 		"/>
		<polygon fill="#CB4823" points="215.407,166.364 215.406,166.21 178.304,129.108 178.304,129.092 178.296,129.084 178.29,129.078 
			178.29,135.801 178.29,135.801 178.295,135.806 178.29,135.811 178.29,135.813 178.296,135.807 178.296,171.6 178.295,171.599 
			178.29,171.604 178.29,171.604 178.328,203.445 		"/>
		<polygon fill="#E7BB32" points="144.823,40.347 126.761,58.41 144.823,76.474 		"/>
		<polygon fill="#982227" points="287.701,199.608 309.598,177.712 287.701,155.815 		"/>
		<polygon fill="#90AB3C" points="26.242,129.078 4.346,107.182 4.346,129.078 4.346,150.975 		"/>
		<polygon fill="#84C28F" points="477.654,21.896 470.389,14.631 470.389,29.162 		"/>
		<polygon fill="#CCDD49" points="470.389,14.631 455.266,29.754 470.389,44.876 470.389,29.162 		"/>
		<polygon fill="#CA3732" points="477.654,36.427 470.389,29.162 470.389,44.876 470.389,60.591 486.104,44.876 481.337,40.11 
			477.654,43.793 		"/>
		<polygon fill="#E3BC37" points="477.654,36.427 477.654,43.793 481.337,40.11 499.551,21.896 477.654,0 477.654,21.896 		"/>
		<polygon fill="#6DA052" points="0,124.732 0,133.424 4.346,129.078 		"/>
		<polygon fill="#C6363A" points="178.295,171.599 178.296,171.6 178.296,135.807 178.29,135.813 160.399,153.703 		"/>
		<polygon fill="#CA3732" points="160.399,153.703 160.398,153.702 160.398,189.494 160.398,189.495 178.29,171.604 
			178.295,171.599 		"/>
		<polygon fill="#CA3732" points="169.794,127.306 169.794,144.307 178.29,135.811 178.295,135.806 178.29,135.801 169.813,127.325 
					"/>
		<polygon fill="#CA3732" points="161.294,152.807 169.794,144.307 161.294,135.806 		"/>
		<polygon fill="#D25D1D" points="169.794,144.307 169.794,127.306 161.294,135.806 		"/>
		<polygon fill="#D25D1D" points="161.294,152.807 161.294,135.806 152.793,144.307 		"/>
		<polygon fill="#D25D1D" points="146.629,155.143 152.793,161.308 152.793,144.307 146.614,150.486 		"/>
		<polygon fill="#CA3732" points="152.793,144.307 152.793,161.308 160.398,153.702 161.294,152.807 		"/>
		<polygon fill="#CA3732" points="146.629,155.143 146.65,161.604 144.293,159.246 144.293,166.866 145.764,168.337 
			152.793,161.308 		"/>
		<polygon fill="#D9631F" points="146.65,183.465 140.675,177.489 140.675,209.218 160.398,189.495 146.625,175.722 		"/>
		<polygon fill="#7A3DA0" points="195.148,305.813 180.396,320.556 195.056,335.217 195.147,335.126 		"/>
		<polygon fill="#703F9D" points="195.147,364.633 195.148,335.125 195.147,335.126 195.056,335.217 180.394,349.879 
			195.055,364.54 195.147,364.447 		"/>
		<polygon fill="#423183" points="195.147,364.447 195.055,364.54 180.394,379.201 195.147,393.955 195.147,364.633 		"/>
		<polygon fill="#5E1E62" points="195.147,393.955 239.225,349.879 195.154,305.807 195.149,305.812 		"/>
		<polygon fill="#5C3586" points="195.147,423.463 195.147,393.955 180.394,408.709 		"/>
		<polygon fill="#4B3D9D" points="169.768,379.416 169.768,342.883 151.501,361.15 		"/>
		<polygon fill="#A9347B" points="140.665,284.656 140.667,284.654 140.667,284.654 140.667,284.654 178.379,246.943 
			140.665,209.229 		"/>
		<polygon fill="#D43E86" points="178.29,203.482 178.29,203.482 178.29,203.481 178.291,203.482 178.328,203.445 178.29,171.604 
			140.665,209.229 178.379,246.943 178.29,203.482 		"/>
		<polygon fill="#84C28F" points="479.186,459.268 479.186,489.08 479.186,500 499.551,479.634 		"/>
		<polygon fill="#D43E86" points="441.471,451.366 479.186,489.08 479.096,413.741 		"/>
		<polygon fill="#5843A7" points="140.665,284.658 140.667,284.66 140.667,284.656 		"/>
		<polygon fill="#5843A7" points="140.668,284.655 154.793,298.78 154.794,271.757 154.793,270.53 		"/>
		<polygon fill="#792880" points="178.378,294.113 178.379,246.943 154.793,270.529 		"/>
		<polygon fill="#AC2775" points="213.671,239.029 201.688,251.012 201.688,246.567 211.454,236.801 208.047,233.378 
			201.688,239.737 201.688,235.291 205.829,231.149 202.422,227.727 201.688,228.461 201.688,226.99 193.922,219.188 
			193.724,262.78 215.491,240.857 		"/>
		<polygon fill="#A02264" points="216.641,220.338 215.491,219.188 215.495,221.484 		"/>
		<polygon fill="#A02264" points="218.864,222.561 215.502,225.923 215.514,232.741 221.734,226.52 221.733,230.966 
			215.521,237.179 215.532,243.998 221.733,237.795 221.734,242.242 215.539,248.437 215.55,255.257 221.735,249.072 
			221.733,253.518 215.558,259.693 215.6,285.354 215.6,285.374 245.169,255.804 245.21,255.763 248.641,252.332 245.244,248.936 
			245.244,248.947 		"/>
		<polygon fill="#912271" points="215.537,259.714 202.946,272.305 215.589,285.363 215.6,285.374 215.6,285.354 		"/>
		<polygon fill="#912271" points="215.526,255.28 215.51,248.466 201.688,262.287 201.688,257.842 215.499,244.03 215.491,240.857 
			193.724,262.78 201.689,271.007 201.689,269.117 		"/>
		<polygon fill="#7C1F6F" points="215.589,285.363 202.944,272.307 201.688,273.563 201.689,271.012 178.379,246.943 
			178.479,322.471 180.396,320.556 195.148,305.813 195.149,305.812 195.154,305.807 195.16,305.801 215.6,285.374 		"/>
		<path fill="#3342A2" d="M140.667,284.654L140.667,284.654L140.667,284.654v0.002v0.004l0.119,75.441l37.664-37.664l-23.657-23.657
			L140.667,284.654L140.667,284.654z M149.551,344.621l-5.088,5.088l0.021-6.089l5.072-5.072L149.551,344.621z M149.551,335.305
			l-5.088,5.088l0.021-6.089l5.072-5.072L149.551,335.305z M149.552,325.988l-5.089,5.088l0.021-6.089l5.072-5.072L149.552,325.988z
			"/>
		<polygon fill="#2E4497" points="140.788,360.102 140.889,396.787 167.334,423.23 167.233,386.547 		"/>
		<polygon fill="#BC3E66" points="220.304,205.4 216.889,201.985 215.536,203.338 215.517,210.187 		"/>
		<polygon fill="#BC3E66" points="221.733,208.415 215.504,214.645 215.491,219.188 216.641,220.338 221.733,215.246 
			221.734,219.691 218.864,222.561 245.244,248.947 245.244,248.936 245.244,230.341 221.733,206.83 		"/>
		<polygon fill="#5648A9" points="154.793,270.529 154.793,270.53 154.794,271.757 154.814,298.764 178.472,322.422 
			178.378,294.113 		"/>
		<polygon fill="#A72145" points="287.697,228.748 287.697,228.752 287.326,228.381 287.329,229.121 287.381,243.594 
			300.271,256.484 300.217,241.27 		"/>
		<polygon fill="#5F977C" points="21.713,264.728 8.821,251.835 8.876,267.052 21.767,279.942 		"/>
		<polygon fill="#314F9F" points="62.643,436.464 62.683,447.199 71.777,456.294 71.737,445.558 		"/>
		<polygon fill="#D37020" points="406.619,91.161 397.524,82.067 397.564,92.803 406.659,101.897 		"/>
		<polygon fill="#8F1F60" points="245.159,309.218 245.169,309.228 258.049,322.201 258.049,306.986 245.169,294.105 
			245.159,294.096 		"/>
		<polygon fill="#8D1C4D" points="275.51,299.391 275.543,308.756 283.478,316.689 283.444,307.326 		"/>
		<polygon fill="#B1273E" points="263.098,180.284 215.408,132.595 215.493,166.297 215.491,166.295 215.491,189.582 
			215.525,198.907 221.733,192.7 221.733,194.451 245.244,170.94 245.244,230.34 256.082,241.179 256.082,216.325 265.645,206.773 
			265.645,206.698 251.165,192.218 		"/>
		<polygon fill="#B1273E" points="215.406,166.21 215.407,166.364 215.484,166.288 		"/>
		<polygon fill="#D15026" points="178.304,129.108 215.406,166.21 215.484,166.288 215.491,166.28 215.491,166.295 215.493,166.297 
			215.408,132.595 215.368,116.944 215.351,110.004 207.235,101.889 197.652,92.306 178.296,72.949 178.304,129.092 		"/>
		<polygon fill="#B3D143" points="36.163,198.475 36.163,184.531 26.962,193.73 26.925,207.712 		"/>
		<polygon fill="#C73274" points="193.922,219.188 178.29,203.482 178.379,246.943 193.724,262.78 		"/>
		<polygon fill="#C73274" points="178.29,203.481 178.29,203.482 178.291,203.482 		"/>
		<polygon fill="#BA2E67" points="216.889,201.985 220.304,205.4 221.733,203.97 221.733,206.83 245.244,230.341 245.244,230.34 
			245.244,170.94 221.733,194.451 221.733,197.141 		"/>
		<polygon fill="#B5214A" points="287.697,228.752 287.697,228.748 287.697,155.704 287.697,155.683 282.891,160.49 282.881,160.5 
			273.004,170.377 272.994,170.387 263.117,180.265 263.098,180.284 251.165,192.218 265.645,206.698 265.719,206.772 
			287.326,228.381 		"/>
		<polygon fill="#D25D1D" points="145.768,168.341 146.604,169.177 146.625,175.721 160.398,189.494 160.397,153.712 		"/>
		<polygon fill="#D25D1D" points="141.073,156.026 140.64,156.46 137.263,159.837 144.293,166.866 144.293,159.246 		"/>
		<polygon fill="#CA3732" points="138.643,175.458 135.792,172.606 135.792,178.309 		"/>
		<polygon fill="#5F1D62" points="241.251,351.893 241.251,420.313 246.81,414.755 246.81,414.742 246.81,384.008 246.81,322.472 
			245.169,324.11 241.251,328.023 		"/>
		<polygon fill="#E5C238" points="120.495,70.489 120.494,45.672 114.936,51.224 114.936,64.838 114.936,122.604 120.495,117.046 		
			"/>
		<polygon fill="#FFFFFF" points="144.463,331.076 149.552,325.988 149.556,319.915 144.483,324.987 		"/>
		<polygon fill="#FFFFFF" points="144.463,340.393 149.551,335.305 149.556,329.231 144.483,334.304 		"/>
		<polygon fill="#FFFFFF" points="144.463,349.709 149.551,344.621 149.556,338.548 144.483,343.62 		"/>
		<polygon fill="#C53074" points="256.082,241.179 256.082,241.179 256.082,283.23 256.082,297.342 265.649,287.775 
			265.648,273.715 265.648,250.745 265.646,206.771 265.645,206.773 256.082,216.325 		"/>
		<polygon fill="#DACC3C" points="491.551,313.934 500,305.485 500,186.931 491.551,195.37 		"/>
		<path fill="#A8AB33" d="M51.782,210.98l0.097-0.097l32.855-32.852l4.902-4.902v-31.985V116.27v-0.272L51.881,153.69l-0.002,1.134
			L51.782,210.98z M63.298,185.89l0.001-22.903l11.451,11.452v-22.902l11.45,11.45l-11.45,11.452L63.298,185.89l-11.451,11.452
			v-22.902L63.298,185.89z"/>
		<polygon fill="#E8DE3F" points="86.2,162.986 74.75,151.536 74.75,174.438 		"/>
		<polygon fill="#CBDD43" points="63.299,162.986 63.298,185.89 74.75,174.438 		"/>
		<polygon fill="#E8DE3F" points="51.847,197.341 63.298,185.89 51.847,174.439 		"/>
		<polygon fill="#C42F73" points="202.422,227.727 205.829,231.149 215.491,221.487 215.491,219.188 215.491,214.657 		"/>
		<polygon fill="#C42F73" points="213.671,239.029 215.491,240.857 215.491,237.208 		"/>
		<polygon fill="#C42F73" points="215.491,232.764 215.491,225.934 208.047,233.378 211.454,236.801 		"/>
		<polygon fill="#C42F73" points="215.491,166.28 215.484,166.288 215.407,166.364 178.328,203.445 178.291,203.482 178.29,203.482 
			178.29,203.482 178.29,203.482 193.922,219.188 193.922,219.188 201.688,226.99 201.688,224.015 215.491,210.212 215.491,203.383 
			201.688,217.186 201.688,212.741 215.491,198.94 215.491,189.582 215.491,166.295 		"/>
		<polygon fill="#FFFFFF" points="146.603,125.454 140.64,119.491 136.016,114.867 134.699,113.55 134.701,116.182 134.709,127.801 
			140.64,133.731 146.65,139.742 		"/>
		<polygon fill="#FFFFFF" points="144.293,159.246 146.65,161.604 146.629,155.143 146.614,150.486 146.604,147.315 140.64,141.352 
			134.699,135.411 134.71,149.663 140.64,155.593 141.073,156.026 		"/>
		<polygon fill="#FFFFFF" points="146.625,175.722 146.625,175.721 146.604,169.177 145.768,168.341 145.764,168.337 
			144.293,166.866 137.263,159.837 134.699,157.273 134.71,171.524 135.792,172.606 138.643,175.458 140.64,177.454 
			140.675,177.489 146.65,183.465 		"/>
		<polygon fill="#FFFFFF" points="215.537,259.714 215.558,259.693 221.733,253.518 221.735,249.072 215.55,255.257 215.526,255.28 
			201.689,269.117 201.689,271.007 201.689,271.012 201.688,273.563 202.944,272.307 202.946,272.305 		"/>
		<polygon fill="#FFFFFF" points="201.688,257.842 201.688,262.287 215.51,248.466 215.539,248.437 221.734,242.242 
			221.733,237.795 215.532,243.998 215.499,244.03 		"/>
		<polygon fill="#FFFFFF" points="201.688,212.741 201.688,217.186 215.491,203.383 215.536,203.338 216.889,201.985 
			221.733,197.141 221.733,194.451 221.733,192.7 215.525,198.907 215.491,198.94 		"/>
		<polygon fill="#FFFFFF" points="211.454,236.801 201.688,246.567 201.688,251.012 213.671,239.029 215.491,237.208 
			215.521,237.179 221.733,230.966 221.734,226.52 215.514,232.741 215.491,232.764 		"/>
		<polygon fill="#FFFFFF" points="202.422,227.727 215.491,214.657 215.504,214.645 221.733,208.415 221.733,206.83 221.733,203.97 
			220.304,205.4 215.517,210.187 215.491,210.212 201.688,224.015 201.688,226.99 201.688,228.461 		"/>
		<polygon fill="#FFFFFF" points="215.491,221.487 205.829,231.149 201.688,235.291 201.688,239.737 208.047,233.378 
			215.491,225.934 215.502,225.923 218.864,222.561 221.734,219.691 221.733,215.246 216.641,220.338 215.495,221.484 		"/>
		<polygon fill="#FFFFFF" points="86.757,288.025 84.82,286.089 77.402,278.672 74.059,275.328 74.047,278.154 75.983,280.091 
			84.821,288.928 86.745,290.853 		"/>
		<polygon fill="#FFFFFF" points="84.82,281.729 86.773,283.682 86.785,280.854 84.82,278.889 81.003,275.071 74.089,268.157 
			74.077,270.984 79.583,276.491 		"/>
		<polygon fill="#FFFFFF" points="77.88,243.148 74.205,239.475 74.193,242.298 76.462,244.566 84.733,252.838 86.892,254.996 
			86.903,252.168 84.733,249.999 		"/>
		<polygon fill="#FFFFFF" points="84.82,274.527 86.803,276.51 86.815,273.683 84.82,271.688 84.604,271.471 74.117,260.985 
			74.105,263.813 83.184,272.891 		"/>
		<polygon fill="#FFFFFF" points="74.281,246.748 74.176,246.643 74.175,246.854 74.165,249.47 84.733,260.038 86.862,262.167 
			86.873,259.34 84.733,257.2 		"/>
		<polygon fill="#FFFFFF" points="74.146,253.813 74.135,256.641 84.733,267.24 86.832,269.339 86.845,266.512 84.733,264.4 		"/>
		<polygon fill="#AE1E74" points="422.371,245.491 418.627,245.491 418.627,237.678 417.496,237.678 417.496,246.44 422.371,246.44 
					"/>
		<path fill="#AE1E74" d="M407.824,242.865c0,1.937-0.832,2.795-2.132,2.795c-1.17,0-2.041-0.832-2.041-2.795v-5.187h-1.145v5.161
			c0,2.717,1.353,3.744,3.146,3.744c1.898,0,3.315-1.105,3.315-3.796v-5.109h-1.145V242.865z"/>
		<path fill="#AE1E74" d="M431.327,243.099l0.832-0.962l2.886,4.303h1.34l-3.42-5.044l3.173-3.718h-1.404l-2.679,3.289
			c-0.221,0.286-0.455,0.598-0.688,0.936h-0.039v-4.225h-1.131v8.762h1.131V243.099z"/>
		<path fill="#AE1E74" d="M393.693,245.699c0.441-0.429,0.741-1.001,0.741-1.755c0-1.3-0.976-1.989-1.808-2.197v-0.026
			c0.923-0.338,1.482-1.079,1.482-1.924c0-0.689-0.273-1.209-0.729-1.547c-0.546-0.442-1.273-0.637-2.405-0.637
			c-0.793,0-1.572,0.078-2.066,0.182v8.62c0.377,0.052,0.975,0.104,1.755,0.104C392.094,246.519,393.082,246.258,393.693,245.699z
			 M390.04,238.562c0.182-0.039,0.481-0.078,1.001-0.078c1.145,0,1.924,0.403,1.924,1.43c0,0.845-0.702,1.469-1.897,1.469h-1.027
			V238.562z M390.04,242.241h0.936c1.235,0,2.263,0.494,2.263,1.69c0,1.274-1.079,1.703-2.249,1.703
			c-0.403,0-0.729-0.013-0.949-0.052V242.241z"/>
		<path fill="#001F6B" d="M451.727,257.566v-0.035c0.852-0.289,1.523-0.996,1.523-2.064c0-0.623-0.228-1.174-0.636-1.535
			c-0.504-0.455-1.224-0.658-2.339-0.658c-0.72,0-1.475,0.059-2.003,0.168v7.975h1.044v-3.502h0.983
			c0.947,0.037,1.379,0.457,1.619,1.572c0.228,1.006,0.407,1.703,0.54,1.93h1.079c-0.168-0.311-0.36-1.092-0.624-2.219
			C452.723,258.357,452.351,257.783,451.727,257.566z M450.384,257.123h-1.067v-2.951c0.168-0.047,0.527-0.096,1.031-0.096
			c1.104,0.012,1.859,0.469,1.859,1.512C452.207,256.512,451.499,257.123,450.384,257.123z"/>
		<polygon fill="#001F6B" points="434.389,257.627 437.531,257.627 437.531,256.764 434.389,256.764 434.389,254.209 
			437.711,254.209 437.711,253.332 433.345,253.332 433.345,261.416 437.891,261.416 437.891,260.541 434.389,260.541 		"/>
		<polygon fill="#001F6B" points="419.701,253.332 418.657,253.332 418.657,261.416 423.155,261.416 423.155,260.541 
			419.701,260.541 		"/>
		<path fill="#001F6B" d="M377.927,253.332l-1.439,3.91c-0.36,1.02-0.647,1.908-0.852,2.723H375.6
			c-0.203-0.84-0.479-1.727-0.815-2.723l-1.379-3.91h-1.331l-0.564,8.084h0.996l0.215-3.465c0.072-1.213,0.133-2.566,0.156-3.574
			h0.024c0.228,0.959,0.552,2.002,0.936,3.143l1.308,3.85h0.791l1.428-3.922c0.407-1.115,0.743-2.123,1.02-3.07h0.035
			c-0.012,1.008,0.061,2.361,0.12,3.49l0.204,3.549h1.02l-0.504-8.084H377.927z"/>
		<rect x="406.766" y="253.332" fill="#001F6B" width="1.043" height="8.084"/>
		<path fill="#001F6B" d="M392.533,253.332l-2.747,8.084h1.079l0.84-2.543h2.866l0.864,2.543h1.115l-2.759-8.084H392.533z
			 M391.921,258.059l0.792-2.34c0.156-0.49,0.287-0.982,0.407-1.463h0.024c0.119,0.469,0.24,0.947,0.42,1.477l0.791,2.326H391.921z"
			/>
	</g>
</g>
<g id="DESIGNED_BY_FREEPIK" display="none">
	<g id="XMLID_1_" display="inline">
		<g id="XMLID_319_">
			<g id="XMLID_338_">
				<path id="XMLID_346_" fill="#1D262D" d="M915.571,465.466c-0.433,0.442-0.804,0.931-1.108,1.453l-0.465-0.241
					c-0.067-0.298-0.35-0.503-0.659-0.467c-0.331,0.039-0.567,0.339-0.529,0.67c0.039,0.331,0.339,0.568,0.67,0.529
					c0.065-0.008,0.127-0.026,0.184-0.053l0.451,0.234c-0.251,0.554-0.433,1.139-0.539,1.744l0.747,0.131
					c0.229-1.306,0.85-2.506,1.791-3.472L915.571,465.466z"/>
				<path id="XMLID_345_" fill="#1D262D" d="M921.059,463.163c-0.171,0-0.341,0.007-0.51,0.018l-0.073-0.626
					c0.188-0.149,0.296-0.39,0.266-0.645c-0.046-0.394-0.402-0.675-0.795-0.629c-0.394,0.047-0.675,0.402-0.628,0.796
					c0.03,0.254,0.189,0.461,0.404,0.563l0.073,0.624c-0.714,0.116-1.402,0.332-2.06,0.646l0.327,0.684
					c0.935-0.447,1.941-0.673,2.995-0.673c0.497,0,0.993,0.053,1.476,0.157l0.16-0.741
					C922.159,463.223,921.609,463.163,921.059,463.163z"/>
				<path id="XMLID_344_" fill="#1D262D" d="M927.661,465.711c0.331-0.041,0.566-0.342,0.525-0.673
					c-0.04-0.331-0.341-0.565-0.672-0.525c-0.31,0.038-0.535,0.304-0.53,0.608l-0.416,0.363c-0.418-0.43-0.889-0.813-1.407-1.139
					l-0.404,0.641c1.135,0.715,2.021,1.727,2.563,2.926l0.69-0.313c-0.251-0.555-0.567-1.072-0.942-1.545l0.402-0.352
					C927.532,465.716,927.596,465.719,927.661,465.711z"/>
				<path id="XMLID_343_" fill="#1D262D" d="M920.512,473.372c-0.386,0.023-0.775,0.034-1.157,0.034
					c-0.88,0-1.733-0.061-2.479-0.179c-0.391-0.063-0.846-0.155-1.271-0.292c1.047,1.86,3.069,3.125,5.389,3.125
					c2.855,0,5.262-1.916,5.949-4.504c-0.682,0.449-1.505,0.825-2.458,1.123C923.306,473.047,921.931,473.286,920.512,473.372z"/>
				<path id="XMLID_339_" fill="#1D262D" d="M921.059,464.68c-3.352,0-6.079,2.666-6.079,5.943c0,0.426,0.046,0.849,0.137,1.262
					c0.674,0.482,2.706,0.89,5.348,0.73c2.88-0.173,5.297-0.957,6.672-2.158c-0.005-0.195-0.021-0.391-0.045-0.582
					C926.711,466.913,924.117,464.68,921.059,464.68z M918.899,471.194c-1.02,0-1.85-0.83-1.85-1.85c0-1.021,0.83-1.85,1.85-1.85
					s1.85,0.829,1.85,1.85C920.749,470.364,919.919,471.194,918.899,471.194z M923.637,470.286c-0.75,0-1.36-0.61-1.36-1.36
					s0.61-1.36,1.36-1.36s1.36,0.61,1.36,1.36S924.387,470.286,923.637,470.286z"/>
			</g>
			<path id="XMLID_336_" fill="#1D262D" d="M937.063,466.547c-0.295-0.116-0.806-0.309-1.383-0.237
				c-0.551,0.068-0.844,0.341-0.844,1.007v0.865h2.229v1.718h-2.229v5.454h-1.932v-5.454h-1.34v-1.718h1.34v-0.888
				c0-1.681,0.896-2.783,2.568-2.783c0.643,0,1.157,0.122,1.59,0.309V466.547z"/>
			<path id="XMLID_334_" fill="#1D262D" d="M941.765,469.879c-0.177-0.03-0.357-0.047-0.526-0.047c-0.895,0-1.509,0.548-1.509,1.614
				v3.907h-1.933v-7.172h1.873v0.785c0.451-0.674,1.14-0.978,2.021-0.978c0.414,0,0.848,0.128,1.095,0.337L941.765,469.879z"/>
			<path id="XMLID_331_" fill="#1D262D" d="M949.433,471.757c0,0.222-0.016,0.488-0.037,0.651h-5.085
				c0.207,1.036,0.933,1.487,1.843,1.487c0.622,0,1.295-0.251,1.813-0.688l1.133,1.243c-0.814,0.747-1.851,1.088-3.057,1.088
				c-2.199,0-3.724-1.495-3.724-3.753c0-2.257,1.48-3.797,3.627-3.797C948.011,467.989,949.425,469.521,949.433,471.757z
				 M944.318,471.091h3.175c-0.178-0.918-0.733-1.437-1.562-1.437C945.021,469.654,944.488,470.202,944.318,471.091z"/>
			<path id="XMLID_328_" fill="#1D262D" d="M957.086,471.757c0,0.222-0.016,0.488-0.037,0.651h-5.085
				c0.207,1.036,0.933,1.487,1.843,1.487c0.622,0,1.295-0.251,1.813-0.688l1.133,1.243c-0.814,0.747-1.851,1.088-3.058,1.088
				c-2.198,0-3.723-1.495-3.723-3.753c0-2.257,1.48-3.797,3.627-3.797C955.664,467.989,957.078,469.521,957.086,471.757z
				 M951.971,471.091h3.176c-0.178-0.918-0.733-1.437-1.562-1.437C952.674,469.654,952.142,470.202,951.971,471.091z"/>
			<path id="XMLID_325_" fill="#1D262D" d="M965.432,471.765c0,2.153-1.495,3.774-3.472,3.774c-0.962,0-1.644-0.378-2.109-0.933
				v3.708h-1.925v-10.133h1.888v0.792c0.466-0.584,1.154-0.984,2.139-0.984C963.937,467.989,965.432,469.61,965.432,471.765z
				 M959.754,471.765c0,1.132,0.748,1.976,1.844,1.976c1.14,0,1.85-0.881,1.85-1.976c0-1.096-0.71-1.977-1.85-1.977
				C960.502,469.788,959.754,470.632,959.754,471.765z"/>
			<path id="XMLID_322_" fill="#1D262D" d="M968.535,465.836c0,0.695-0.541,1.229-1.236,1.229s-1.229-0.533-1.229-1.229
				c0-0.696,0.533-1.244,1.229-1.244S968.535,465.14,968.535,465.836z M968.275,475.354h-1.932v-7.172h1.932V475.354z"/>
			<path id="XMLID_320_" fill="#1D262D" d="M971.499,470.735l2.702-2.554h2.368l-3.479,3.375l3.501,3.797h-2.376l-2.717-2.901v2.901
				h-1.932v-10.657h1.932V470.735z"/>
		</g>
		<g id="XMLID_2_">
			<path id="XMLID_3_" fill="#1D262D" d="M839.88,475.289v-1.055c-0.527,0.718-1.392,1.23-2.388,1.23
				c-1.846,0-3.149-1.406-3.149-3.706c0-2.256,1.289-3.721,3.149-3.721c0.952,0,1.816,0.469,2.388,1.245v-3.765h1.099v9.771H839.88z
				 M839.88,473.37v-3.208c-0.396-0.615-1.245-1.143-2.124-1.143c-1.421,0-2.271,1.172-2.271,2.739s0.85,2.725,2.271,2.725
				C838.635,474.483,839.484,473.985,839.88,473.37z"/>
			<path id="XMLID_6_" fill="#1D262D" d="M842.399,471.744c0-2.051,1.464-3.706,3.485-3.706c2.139,0,3.398,1.67,3.398,3.794v0.278
				h-5.727c0.088,1.333,1.025,2.446,2.549,2.446c0.805,0,1.625-0.322,2.182-0.894l0.527,0.718c-0.703,0.703-1.654,1.084-2.813,1.084
				C843.907,475.465,842.399,473.956,842.399,471.744z M845.871,468.946c-1.51,0-2.257,1.274-2.314,2.358h4.643
				C848.185,470.25,847.481,468.946,845.871,468.946z"/>
			<path id="XMLID_9_" fill="#1D262D" d="M850.074,474.352l0.571-0.791c0.469,0.542,1.362,1.011,2.329,1.011
				c1.084,0,1.67-0.513,1.67-1.216c0-1.714-4.38-0.659-4.38-3.281c0-1.099,0.952-2.036,2.637-2.036c1.201,0,2.051,0.454,2.622,1.025
				l-0.514,0.762c-0.424-0.513-1.2-0.894-2.108-0.894c-0.967,0-1.567,0.483-1.567,1.113c0,1.553,4.379,0.527,4.379,3.281
				c0,1.187-0.951,2.139-2.782,2.139C851.773,475.465,850.792,475.113,850.074,474.352z"/>
			<path id="XMLID_11_" fill="#1D262D" d="M856.944,466.471c0-0.41,0.337-0.747,0.732-0.747c0.41,0,0.746,0.337,0.746,0.747
				s-0.336,0.732-0.746,0.732C857.281,467.203,856.944,466.881,856.944,466.471z M857.135,475.289v-7.075h1.099v7.075H857.135z"/>
			<path id="XMLID_14_" fill="#1D262D" d="M860.049,477.105l0.557-0.82c0.586,0.703,1.289,0.967,2.3,0.967
				c1.172,0,2.271-0.571,2.271-2.124v-1.011c-0.513,0.718-1.377,1.26-2.373,1.26c-1.846,0-3.149-1.377-3.149-3.662
				c0-2.271,1.289-3.677,3.149-3.677c0.952,0,1.802,0.469,2.373,1.245v-1.069h1.099v6.87c0,2.344-1.641,3.076-3.369,3.076
				C861.704,478.16,860.884,477.926,860.049,477.105z M865.176,473.253v-3.091c-0.381-0.615-1.23-1.143-2.109-1.143
				c-1.421,0-2.271,1.128-2.271,2.695c0,1.553,0.85,2.695,2.271,2.695C863.945,474.41,864.795,473.868,865.176,473.253z"/>
			<path id="XMLID_17_" fill="#1D262D" d="M872.881,475.289v-4.629c0-1.245-0.63-1.641-1.582-1.641
				c-0.865,0-1.686,0.527-2.095,1.099v5.171h-1.099v-7.075h1.099v1.025c0.498-0.586,1.464-1.201,2.519-1.201
				c1.479,0,2.257,0.747,2.257,2.285v4.966H872.881z"/>
			<path id="XMLID_19_" fill="#1D262D" d="M875.399,471.744c0-2.051,1.465-3.706,3.486-3.706c2.139,0,3.398,1.67,3.398,3.794v0.278
				h-5.728c0.088,1.333,1.025,2.446,2.549,2.446c0.806,0,1.626-0.322,2.183-0.894l0.527,0.718c-0.703,0.703-1.655,1.084-2.813,1.084
				C876.908,475.465,875.399,473.956,875.399,471.744z M878.871,468.946c-1.509,0-2.256,1.274-2.314,2.358h4.644
				C881.186,470.25,880.482,468.946,878.871,468.946z"/>
			<path id="XMLID_22_" fill="#1D262D" d="M888.817,475.289v-1.055c-0.527,0.718-1.392,1.23-2.388,1.23
				c-1.846,0-3.149-1.406-3.149-3.706c0-2.256,1.289-3.721,3.149-3.721c0.951,0,1.816,0.469,2.388,1.245v-3.765h1.099v9.771H888.817
				z M888.817,473.37v-3.208c-0.396-0.615-1.245-1.143-2.124-1.143c-1.421,0-2.271,1.172-2.271,2.739s0.85,2.725,2.271,2.725
				C887.572,474.483,888.421,473.985,888.817,473.37z"/>
			<path id="XMLID_25_" fill="#1D262D" d="M895.159,475.289v-9.771h1.099v3.765c0.571-0.776,1.421-1.245,2.388-1.245
				c1.846,0,3.149,1.465,3.149,3.721c0,2.3-1.304,3.706-3.149,3.706c-0.996,0-1.86-0.513-2.388-1.23v1.055H895.159z
				 M898.367,474.483c1.436,0,2.285-1.157,2.285-2.725s-0.85-2.739-2.285-2.739c-0.864,0-1.729,0.527-2.109,1.143v3.208
				C896.639,473.985,897.503,474.483,898.367,474.483z"/>
			<path id="XMLID_28_" fill="#1D262D" d="M902.996,477.062c0.16,0.073,0.425,0.117,0.601,0.117c0.482,0,0.805-0.161,1.055-0.747
				l0.469-1.069l-2.959-7.148h1.187l2.357,5.801l2.344-5.801h1.201l-3.545,8.511c-0.424,1.025-1.143,1.421-2.08,1.436
				c-0.233,0-0.601-0.044-0.805-0.103L902.996,477.062z"/>
		</g>
	</g>
	<g id="XMLID_30_" display="inline">
		<g id="XMLID_59_">
			<g id="XMLID_78_">
				<path id="XMLID_86_" fill="#1D262D" d="M260.104,465.466c-0.433,0.442-0.804,0.931-1.108,1.453l-0.466-0.241
					c-0.066-0.298-0.349-0.503-0.658-0.467c-0.331,0.039-0.568,0.339-0.529,0.67s0.339,0.568,0.67,0.529
					c0.065-0.008,0.127-0.026,0.184-0.053l0.451,0.234c-0.251,0.554-0.433,1.139-0.539,1.744l0.746,0.131
					c0.23-1.306,0.85-2.506,1.792-3.472L260.104,465.466z"/>
				<path id="XMLID_85_" fill="#1D262D" d="M265.592,463.163c-0.171,0-0.341,0.007-0.51,0.018l-0.073-0.626
					c0.188-0.149,0.296-0.39,0.266-0.645c-0.046-0.394-0.402-0.675-0.796-0.629c-0.393,0.047-0.674,0.402-0.628,0.796
					c0.03,0.254,0.189,0.461,0.405,0.563l0.073,0.624c-0.714,0.116-1.403,0.332-2.06,0.646l0.327,0.684
					c0.934-0.447,1.941-0.673,2.995-0.673c0.496,0,0.993,0.053,1.475,0.157l0.161-0.741
					C266.692,463.223,266.143,463.163,265.592,463.163z"/>
				<path id="XMLID_84_" fill="#1D262D" d="M272.194,465.711c0.331-0.041,0.566-0.342,0.525-0.673
					c-0.04-0.331-0.342-0.565-0.672-0.525c-0.31,0.038-0.535,0.304-0.53,0.608l-0.416,0.363c-0.418-0.43-0.89-0.813-1.408-1.139
					l-0.403,0.641c1.134,0.715,2.021,1.727,2.563,2.926l0.69-0.313c-0.251-0.555-0.567-1.072-0.942-1.545l0.402-0.352
					C272.064,465.716,272.129,465.719,272.194,465.711z"/>
				<path id="XMLID_83_" fill="#1D262D" d="M265.044,473.372c-0.386,0.023-0.774,0.034-1.157,0.034c-0.88,0-1.732-0.061-2.478-0.179
					c-0.391-0.063-0.847-0.155-1.271-0.292c1.046,1.86,3.069,3.125,5.389,3.125c2.855,0,5.262-1.916,5.949-4.504
					c-0.682,0.449-1.506,0.825-2.459,1.123C267.839,473.047,266.464,473.286,265.044,473.372z"/>
				<path id="XMLID_79_" fill="#1D262D" d="M265.592,464.68c-3.353,0-6.079,2.666-6.079,5.943c0,0.426,0.046,0.849,0.137,1.262
					c0.674,0.482,2.706,0.89,5.348,0.73c2.879-0.173,5.297-0.957,6.672-2.158c-0.005-0.195-0.021-0.391-0.045-0.582
					C271.244,466.913,268.65,464.68,265.592,464.68z M263.433,471.194c-1.021,0-1.85-0.83-1.85-1.85c0-1.021,0.829-1.85,1.85-1.85
					c1.02,0,1.85,0.829,1.85,1.85C265.282,470.364,264.452,471.194,263.433,471.194z M268.17,470.286c-0.75,0-1.36-0.61-1.36-1.36
					s0.61-1.36,1.36-1.36s1.36,0.61,1.36,1.36S268.92,470.286,268.17,470.286z"/>
			</g>
			<path id="XMLID_76_" fill="#1D262D" d="M281.596,466.547c-0.295-0.116-0.806-0.309-1.383-0.237
				c-0.551,0.068-0.844,0.341-0.844,1.007v0.865h2.228v1.718h-2.228v5.454h-1.932v-5.454h-1.34v-1.718h1.34v-0.888
				c0-1.681,0.896-2.783,2.568-2.783c0.643,0,1.157,0.122,1.59,0.309V466.547z"/>
			<path id="XMLID_74_" fill="#1D262D" d="M286.298,469.879c-0.177-0.03-0.357-0.047-0.526-0.047c-0.896,0-1.51,0.548-1.51,1.614
				v3.907h-1.932v-7.172h1.873v0.785c0.451-0.674,1.14-0.978,2.021-0.978c0.414,0,0.848,0.128,1.094,0.337L286.298,469.879z"/>
			<path id="XMLID_71_" fill="#1D262D" d="M293.965,471.757c0,0.222-0.015,0.488-0.037,0.651h-5.084
				c0.207,1.036,0.933,1.487,1.843,1.487c0.621,0,1.295-0.251,1.813-0.688l1.132,1.243c-0.813,0.747-1.851,1.088-3.057,1.088
				c-2.198,0-3.723-1.495-3.723-3.753c0-2.257,1.48-3.797,3.626-3.797C292.544,467.989,293.958,469.521,293.965,471.757z
				 M288.851,471.091h3.175c-0.177-0.918-0.732-1.437-1.562-1.437C289.554,469.654,289.021,470.202,288.851,471.091z"/>
			<path id="XMLID_68_" fill="#1D262D" d="M301.618,471.757c0,0.222-0.015,0.488-0.037,0.651h-5.084
				c0.207,1.036,0.933,1.487,1.843,1.487c0.621,0,1.295-0.251,1.813-0.688l1.132,1.243c-0.814,0.747-1.851,1.088-3.057,1.088
				c-2.198,0-3.723-1.495-3.723-3.753c0-2.257,1.48-3.797,3.626-3.797C300.197,467.989,301.611,469.521,301.618,471.757z
				 M296.504,471.091h3.176c-0.178-0.918-0.733-1.437-1.563-1.437C297.207,469.654,296.674,470.202,296.504,471.091z"/>
			<path id="XMLID_65_" fill="#1D262D" d="M309.964,471.765c0,2.153-1.495,3.774-3.471,3.774c-0.963,0-1.644-0.378-2.109-0.933
				v3.708h-1.925v-10.133h1.888v0.792c0.466-0.584,1.154-0.984,2.139-0.984C308.469,467.989,309.964,469.61,309.964,471.765z
				 M304.287,471.765c0,1.132,0.748,1.976,1.843,1.976c1.14,0,1.851-0.881,1.851-1.976c0-1.096-0.711-1.977-1.851-1.977
				C305.035,469.788,304.287,470.632,304.287,471.765z"/>
			<path id="XMLID_62_" fill="#1D262D" d="M313.067,465.836c0,0.695-0.54,1.229-1.235,1.229c-0.696,0-1.229-0.533-1.229-1.229
				c0-0.696,0.533-1.244,1.229-1.244C312.527,464.592,313.067,465.14,313.067,465.836z M312.809,475.354h-1.932v-7.172h1.932
				V475.354z"/>
			<path id="XMLID_60_" fill="#1D262D" d="M316.032,470.735l2.701-2.554h2.369l-3.479,3.375l3.501,3.797h-2.376l-2.716-2.901v2.901
				h-1.932v-10.657h1.932V470.735z"/>
		</g>
		<g id="XMLID_31_">
			<path id="XMLID_56_" fill="#1D262D" d="M184.413,475.289v-1.055c-0.527,0.718-1.392,1.23-2.388,1.23
				c-1.846,0-3.149-1.406-3.149-3.706c0-2.256,1.289-3.721,3.149-3.721c0.952,0,1.816,0.469,2.388,1.245v-3.765h1.099v9.771H184.413
				z M184.413,473.37v-3.208c-0.396-0.615-1.245-1.143-2.124-1.143c-1.421,0-2.271,1.172-2.271,2.739s0.85,2.725,2.271,2.725
				C183.167,474.483,184.017,473.985,184.413,473.37z"/>
			<path id="XMLID_53_" fill="#1D262D" d="M186.932,471.744c0-2.051,1.464-3.706,3.486-3.706c2.139,0,3.398,1.67,3.398,3.794v0.278
				h-5.728c0.088,1.333,1.025,2.446,2.549,2.446c0.806,0,1.626-0.322,2.183-0.894l0.527,0.718c-0.703,0.703-1.655,1.084-2.813,1.084
				C188.44,475.465,186.932,473.956,186.932,471.744z M190.403,468.946c-1.509,0-2.256,1.274-2.314,2.358h4.644
				C192.718,470.25,192.015,468.946,190.403,468.946z"/>
			<path id="XMLID_51_" fill="#1D262D" d="M194.607,474.352l0.571-0.791c0.469,0.542,1.362,1.011,2.329,1.011
				c1.084,0,1.67-0.513,1.67-1.216c0-1.714-4.38-0.659-4.38-3.281c0-1.099,0.952-2.036,2.637-2.036c1.201,0,2.051,0.454,2.622,1.025
				l-0.513,0.762c-0.424-0.513-1.201-0.894-2.109-0.894c-0.967,0-1.567,0.483-1.567,1.113c0,1.553,4.379,0.527,4.379,3.281
				c0,1.187-0.952,2.139-2.783,2.139C196.306,475.465,195.325,475.113,194.607,474.352z"/>
			<path id="XMLID_48_" fill="#1D262D" d="M201.477,466.471c0-0.41,0.337-0.747,0.732-0.747c0.41,0,0.747,0.337,0.747,0.747
				s-0.336,0.732-0.747,0.732C201.814,467.203,201.477,466.881,201.477,466.471z M201.667,475.289v-7.075h1.099v7.075H201.667z"/>
			<path id="XMLID_45_" fill="#1D262D" d="M204.582,477.105l0.557-0.82c0.586,0.703,1.289,0.967,2.3,0.967
				c1.172,0,2.27-0.571,2.27-2.124v-1.011c-0.512,0.718-1.376,1.26-2.373,1.26c-1.845,0-3.149-1.377-3.149-3.662
				c0-2.271,1.289-3.677,3.149-3.677c0.952,0,1.802,0.469,2.373,1.245v-1.069h1.099v6.87c0,2.344-1.641,3.076-3.369,3.076
				C206.237,478.16,205.417,477.926,204.582,477.105z M209.708,473.253v-3.091c-0.381-0.615-1.23-1.143-2.109-1.143
				c-1.421,0-2.271,1.128-2.271,2.695c0,1.553,0.849,2.695,2.271,2.695C208.478,474.41,209.328,473.868,209.708,473.253z"/>
			<path id="XMLID_43_" fill="#1D262D" d="M217.413,475.289v-4.629c0-1.245-0.629-1.641-1.582-1.641
				c-0.865,0-1.685,0.527-2.095,1.099v5.171h-1.099v-7.075h1.099v1.025c0.498-0.586,1.464-1.201,2.519-1.201
				c1.479,0,2.256,0.747,2.256,2.285v4.966H217.413z"/>
			<path id="XMLID_40_" fill="#1D262D" d="M219.933,471.744c0-2.051,1.465-3.706,3.486-3.706c2.138,0,3.398,1.67,3.398,3.794v0.278
				h-5.728c0.088,1.333,1.025,2.446,2.549,2.446c0.806,0,1.625-0.322,2.183-0.894l0.527,0.718c-0.703,0.703-1.655,1.084-2.813,1.084
				C221.441,475.465,219.933,473.956,219.933,471.744z M223.404,468.946c-1.509,0-2.256,1.274-2.314,2.358h4.643
				C225.718,470.25,225.015,468.946,223.404,468.946z"/>
			<path id="XMLID_37_" fill="#1D262D" d="M233.35,475.289v-1.055c-0.527,0.718-1.392,1.23-2.388,1.23
				c-1.845,0-3.149-1.406-3.149-3.706c0-2.256,1.289-3.721,3.149-3.721c0.952,0,1.817,0.469,2.388,1.245v-3.765h1.099v9.771H233.35z
				 M233.35,473.37v-3.208c-0.396-0.615-1.245-1.143-2.124-1.143c-1.421,0-2.271,1.172-2.271,2.739s0.85,2.725,2.271,2.725
				C232.105,474.483,232.954,473.985,233.35,473.37z"/>
			<path id="XMLID_34_" fill="#1D262D" d="M239.692,475.289v-9.771h1.099v3.765c0.572-0.776,1.421-1.245,2.388-1.245
				c1.846,0,3.149,1.465,3.149,3.721c0,2.3-1.304,3.706-3.149,3.706c-0.996,0-1.86-0.513-2.388-1.23v1.055H239.692z M242.9,474.483
				c1.436,0,2.285-1.157,2.285-2.725s-0.85-2.739-2.285-2.739c-0.864,0-1.729,0.527-2.109,1.143v3.208
				C241.171,473.985,242.036,474.483,242.9,474.483z"/>
			<path id="XMLID_32_" fill="#1D262D" d="M247.528,477.062c0.161,0.073,0.425,0.117,0.601,0.117c0.483,0,0.805-0.161,1.055-0.747
				l0.468-1.069l-2.959-7.148h1.187l2.358,5.801l2.344-5.801h1.201l-3.545,8.511c-0.425,1.025-1.143,1.421-2.08,1.436
				c-0.234,0-0.601-0.044-0.805-0.103L247.528,477.062z"/>
		</g>
	</g>
</g>
</svg>
