<?xml version="1.0" encoding="utf-8"?>
<!-- Generator: Adobe Illustrator 16.0.0, SVG Export Plug-In . SVG Version: 6.00 Build 0)  -->
<svg version="1.2" baseProfile="tiny" id="BACKGROUND_1"
	 xmlns="http://www.w3.org/2000/svg" xmlns:xlink="http://www.w3.org/1999/xlink" x="0px" y="0px" width="500px" height="500px"
	 viewBox="0 0 500 500" xml:space="preserve">
<g>
	<polygon fill="#FFFFFF" points="284.496,214.645 284.509,219.188 284.509,214.657 	"/>
	<path fill="#FFFFFF" d="M68.561,239.914c0-1.027-0.779-1.43-1.924-1.43c-0.52,0-0.819,0.039-1.001,0.078v2.821h1.027
		C67.858,241.383,68.561,240.759,68.561,239.914z"/>
	<polygon fill="#FFFFFF" points="321.704,129.084 321.704,104.378 321.704,72.949 321.696,129.092 	"/>
	<polygon fill="#FFFFFF" points="304.852,335.125 304.853,335.126 304.852,305.813 304.851,305.812 304.853,393.955 
		304.853,364.633 	"/>
	<path fill="#FFFFFF" d="M68.834,243.931c0-1.196-1.027-1.69-2.263-1.69h-0.936v3.341c0.221,0.039,0.546,0.052,0.949,0.052
		C67.755,245.634,68.834,245.206,68.834,243.931z"/>
	<polygon fill="#FFFFFF" points="284.509,225.934 284.498,225.923 284.486,232.741 284.509,232.764 	"/>
	<rect x="290.733" y="269.747" fill="#FFFFFF" width="0" height="18.176"/>
	<polygon fill="#FFFFFF" points="284.509,221.487 284.509,219.188 284.505,221.484 	"/>
	<polygon fill="#FFFFFF" points="306.276,262.78 306.077,219.188 306.077,219.188 	"/>
	<polygon fill="#FFFFFF" points="339.602,153.702 339.602,189.494 339.603,153.712 354.232,168.341 354.236,168.337 
		347.207,161.308 	"/>
	<polygon fill="#FFFFFF" points="345.207,270.53 359.332,284.655 359.333,284.654 321.621,246.943 345.207,270.529 	"/>
	<polygon fill="#FFFFFF" points="284.479,237.179 284.468,243.998 284.501,244.03 284.509,240.857 284.509,237.208 	"/>
	<polygon fill="#FFFFFF" points="284.483,210.187 284.509,210.212 284.509,203.383 284.464,203.338 	"/>
	<polygon fill="#FFFFFF" points="29.611,29.162 22.345,21.896 22.345,36.427 	"/>
	<path fill="#FFFFFF" d="M125.944,254.076c-0.504,0-0.863,0.049-1.031,0.096v2.951h1.067c1.115,0,1.823-0.611,1.823-1.535
		C127.803,254.545,127.047,254.088,125.944,254.076z"/>
	<polygon fill="#FFFFFF" points="284.449,255.257 284.474,255.28 284.49,248.466 284.461,248.437 	"/>
	<polygon fill="#FFFFFF" points="334.039,116.711 321.705,104.378 337.318,88.766 337.318,88.764 321.704,104.378 334.039,116.712 	
		"/>
	
		<rect x="336.749" y="182.607" transform="matrix(0.7071 -0.7071 0.7071 0.7071 -27.6392 298.4888)" fill="#FFFFFF" width="19.479" height="0.001"/>
	<rect x="249.337" y="228.096" fill="#FFFFFF" width="0" height="15.327"/>
	<polygon fill="#FFFFFF" points="415.179,302.979 415.179,302.979 396.818,284.618 	"/>
	<polygon fill="#FFFFFF" points="284.4,285.354 284.463,259.714 284.442,259.693 284.4,285.354 	"/>
	<polygon fill="#FFFFFF" points="284.509,189.582 284.475,198.907 284.509,198.94 	"/>
	<path fill="#FFFFFF" d="M495.654,129.078v21.896l-21.896-21.896l21.896-21.896V129.078l4.346-4.346V0H22.345v21.896l7.266-7.266
		l15.123,15.124L29.612,44.876l-0.001-30.245v14.531v31.429L13.896,44.876l4.766-4.766L0.449,21.896L22.345,0H0v186.931l8.45,8.439
		L8.449,313.934L0,305.485V500h20.815L0.449,479.634l20.366-20.366v29.813l0.089-75.339l37.625,37.625L20.815,489.08V500H500
		V133.424L495.654,129.078z M484.706,88.664v14.88l-7.44-7.44L484.706,88.664z M54.338,261.416l-0.204-3.549
		c-0.06-1.129-0.132-2.482-0.12-3.49h-0.036c-0.276,0.947-0.612,1.955-1.02,3.07l-1.427,3.922H50.74l-1.307-3.85
		c-0.384-1.141-0.708-2.184-0.936-3.143h-0.024c-0.024,1.008-0.084,2.361-0.156,3.574l-0.216,3.465h-0.995l0.563-8.084h1.332
		l1.379,3.91c0.336,0.996,0.612,1.883,0.815,2.723h0.036c0.204-0.814,0.492-1.703,0.852-2.723l1.439-3.91h1.331l0.504,8.084H54.338z
		 M459.348,130.992l22.489,22.489l-22.49,22.49L459.348,130.992z M473.075,207.712l-9.238-9.237v-13.943l9.201,9.199
		L473.075,207.712z M432.16,70.779l-21.203,21.203l0.001-42.404L432.16,70.779z M392.778,31.399l18.179,18.179l-18.179,18.179
		V31.399z M386.884,11.639V26.17l-7.266-7.266L386.884,11.639z M355.177,40.347l18.063,18.063l-18.063,18.063V40.347z
		 M246.938,85.952v17.654l18.063,18.063l-18.063,18.063V121.26l-17.654-17.653L246.938,85.952z M64.505,237.795
		c0.494-0.104,1.273-0.182,2.066-0.182c1.132,0,1.859,0.195,2.405,0.637c0.455,0.338,0.729,0.858,0.729,1.547
		c0,0.845-0.56,1.586-1.482,1.924v0.026c0.832,0.208,1.808,0.897,1.808,2.197c0,0.754-0.3,1.326-0.741,1.755
		c-0.611,0.559-1.6,0.819-3.029,0.819c-0.78,0-1.378-0.052-1.755-0.104V237.795z M72.146,261.416h-1.115l-0.864-2.543h-2.866
		l-0.839,2.543h-1.08l2.747-8.084h1.259L72.146,261.416z M63.093,417.826l11.561-11.56l0,23.12L63.093,417.826z M83.405,261.416
		h-1.043v-8.084h1.043V261.416z M84.564,242.787c0,2.691-1.417,3.796-3.315,3.796c-1.794,0-3.146-1.027-3.146-3.744v-5.161h1.145
		v5.187c0,1.963,0.871,2.795,2.041,2.795c1.3,0,2.132-0.858,2.132-2.795v-5.187h1.145V242.787z M93.092,237.678h1.131v7.813h3.744
		v0.949h-4.875V237.678z M98.751,261.416h-4.498v-8.084h1.044v7.209h3.454V261.416z M102.435,92.803l-9.094,9.095l0.04-10.736
		l9.095-9.094L102.435,92.803z M106.923,243.099v3.341h-1.131v-8.762h1.131v4.225h0.039c0.233-0.338,0.468-0.65,0.688-0.936
		l2.679-3.289h1.404l-3.173,3.718l3.42,5.044h-1.34l-2.886-4.303L106.923,243.099z M113.487,261.416h-4.546v-8.084h4.366v0.877
		h-3.322v2.555h3.143v0.863h-3.143v2.914h3.502V261.416z M128.055,261.416c-0.133-0.227-0.313-0.924-0.54-1.93
		c-0.24-1.115-0.672-1.535-1.619-1.572h-0.983v3.502h-1.044v-7.975c0.528-0.109,1.283-0.168,2.003-0.168
		c1.115,0,1.835,0.203,2.339,0.658c0.408,0.361,0.636,0.912,0.636,1.535c0,1.068-0.672,1.775-1.523,2.064v0.035
		c0.624,0.217,0.996,0.791,1.188,1.631c0.264,1.127,0.456,1.908,0.624,2.219H128.055z M170.189,209.58l0.001,23.12L158.63,221.14
		L170.189,209.58z M190.401,305.585l-20.21-20.211l20.212-20.211L190.401,305.585z M224.458,308.756l-7.935,7.934l0.033-9.363
		l7.935-7.936L224.458,308.756z M359.111,396.787l-26.445,26.443l0.101-36.684l26.445-26.445L359.111,396.787z M330.232,379.416
		v-36.533l18.267,18.268L330.232,379.416z M359.352,454.234v-56.955l28.478,28.478L359.352,454.234z M437.317,447.199l-9.095,9.095
		l0.04-10.736l9.095-9.094L437.317,447.199z M480.017,408.067l-11.561-11.562l11.561-11.561V408.067z M480.175,336.249
		l-27.509,27.508l0.001-19.969l-37.278,37.278l0,0l29.761-29.76l-0.001,61.127l-29.76-29.76v80.093l-0.015-0.015l0.001,8.094
		l-17.516,17.516V366.844l0.015,0.015v-8.094l17.305-17.306l0,0l-35.274,35.274v41.094l-20.547-20.547l0.001-112.663l0.002-92.896
		v-14.268l-0.035,0.035v31.729l-19.724-19.723l-17.892-17.892v0.001l37.625,37.625v75.427l-0.002-0.002v0.002l0.002,0.002
		l-0.002,0.002l-0.119,75.441l-37.664-37.664l23.657-23.657l-0.001-27.023l-0.021,27.007l-23.657,23.658l0.094-28.309l-0.001-47.17
		l-0.101,75.527l-1.916-1.915l-14.661,14.661l14.663,14.662l-14.661,14.661l14.661,14.661l-14.754,14.754l14.754,14.754
		l-14.754,14.754v-29.508l-44.077-44.076l44.071-44.072l-0.006-0.006l-46.092,46.092v68.421l-5.559-5.559v-0.013l-15.367-15.367
		l15.367-15.367v-61.536l1.641,1.639v-14.883l-12.88,12.974v-15.215l12.88-12.881v-0.02l-10.914-10.855v14.111l-9.567-9.566
		l0-14.061l-11.515-11.454l11.515-11.516l0.001-43.974l0.002,0.002v-0.076l-0.074,0.074v43.96l-21.609-21.611l-0.052,14.472
		l-12.891,12.891l0.054-15.215l12.52-12.521v-73.046l-5.08-5.079l9.886-9.887v19.752l0.01,0.01l9.876-9.875l0.001,19.754l0.01,0.01
		l9.876-9.877v19.753l0.02,0.02l47.689-47.689l0.04-15.651V74.591l8.133,8.133V44.009l28.939,28.94l15.614,15.613V77.59
		l17.746,17.746l24.441-24.847V45.672l5.559,5.552v13.614v57.767v13.343l15.034,15.035l-15.034,15.034l0.001,0.001l15.247-15.248
		l-0.001-44.552l47.808-47.808v95.28l0.002,1.134v-1.113l9.565,9.554l-0.001,40.477l12.502,12.502l0.003-0.002v0.005l0.085,0.085
		l20.211-20.21v40.421l-20.211-20.211l-0.085,0.085v68.754l20.547,20.547l-20.547,20.547L480.175,336.249z M190.402,177.712
		l21.896-21.896v43.793L190.402,177.712z M491.124,267.052l-12.891,12.891l0.054-15.215l12.892-12.893L491.124,267.052z"/>
	<path fill="#FFFFFF" d="M68.741,254.256h-0.024c-0.12,0.48-0.251,0.973-0.408,1.463l-0.792,2.34h2.435l-0.792-2.326
		C68.98,255.203,68.86,254.725,68.741,254.256z"/>
	<rect x="378.087" y="265.889" fill="#FFFFFF" width="0.001" height="37.458"/>
	<polygon fill="#FFFFFF" points="330.206,144.307 321.71,135.811 321.71,135.813 339.601,153.703 339.602,153.702 338.706,152.807 	
		"/>
	<polygon fill="#FFFFFF" points="298.311,271.007 298.311,271.012 321.621,246.943 306.276,262.78 	"/>
	<polygon fill="#FFFFFF" points="396.96,322.219 415.179,303.999 415.179,303.718 396.818,322.077 	"/>
	
		<rect x="319.954" y="131.563" transform="matrix(0.7071 -0.7071 0.7071 0.7071 2.4393 269.014)" fill="#FFFFFF" width="11.988" height="0"/>
	<polygon fill="#FFFFFF" points="254.831,286.768 254.831,255.804 254.79,255.763 	"/>
	<polygon fill="#DE8524" points="334.039,116.712 337.419,120.092 334.039,116.711 	"/>
	<polygon fill="#DE8524" points="359.36,156.46 359.36,155.593 358.927,156.026 	"/>
	<polygon fill="#DE8524" points="337.42,113.448 337.42,120.093 337.419,120.092 330.187,127.324 330.188,127.325 330.206,127.306 
		338.706,135.806 347.207,144.307 353.386,150.486 353.396,147.315 359.36,141.352 359.36,133.731 353.35,139.742 353.397,125.454 
		359.36,119.491 359.36,110.243 363.984,114.867 365.301,113.55 365.299,116.182 385.064,135.948 385.064,122.604 379.505,117.046 
		379.506,70.489 355.064,95.336 355.299,95.57 	"/>
	<polygon fill="#A5AC33" points="484.706,88.664 477.266,96.104 484.706,103.544 	"/>
	<polygon fill="#E0982B" points="359.36,110.243 359.36,119.491 363.984,114.867 	"/>
	<polygon fill="#E0982B" points="385.064,166.017 385.064,166.017 400.099,150.982 385.064,135.948 365.299,116.182 
		365.291,127.801 359.36,133.731 359.36,141.352 365.301,135.411 365.29,149.663 359.36,155.593 359.36,156.46 362.737,159.837 
		365.301,157.273 365.29,171.524 364.208,172.606 364.208,178.309 361.357,175.458 359.36,177.454 359.36,191.722 	"/>
	<polygon fill="#E8B032" points="385.064,182.831 385.064,217.425 387.085,219.445 415.266,191.264 415.266,178.031 
		410.363,173.129 410.363,141.145 400.313,151.195 400.313,150.77 385.065,166.018 385.064,166.017 385.064,166.017 	"/>
	<polygon fill="#E8E544" points="413.243,288.025 415.18,286.089 415.18,281.729 413.227,283.682 413.215,280.854 415.18,278.889 
		415.18,274.527 413.197,276.51 413.185,273.683 415.18,271.688 415.18,271.254 415.267,271.167 415.267,267.24 413.168,269.339 
		413.155,266.512 415.267,264.4 415.267,260.038 413.138,262.167 413.127,259.34 415.267,257.2 415.267,252.838 413.108,254.996 
		413.097,252.168 415.267,249.999 415.267,236.295 415.266,236.294 415.266,191.264 387.085,219.445 405.808,238.168 
		394.516,249.46 394.516,249.928 394.281,249.694 378.088,265.888 396.818,284.618 415.179,302.979 415.18,288.928 413.255,290.853 
			"/>
	<polygon fill="#84C28F" points="470.19,216.417 457.686,228.922 457.686,244.281 450.007,236.601 432.79,253.818 415.267,271.341 
		415.396,271.471 425.883,260.985 425.895,263.813 416.816,272.891 418.997,275.071 425.911,268.157 425.923,270.984 
		420.417,276.491 422.598,278.672 425.941,275.328 425.953,278.154 424.017,280.091 452.668,308.742 470.19,326.265 470.19,285.171 
			"/>
	<polygon fill="#84C28F" points="470.19,216.242 470.188,216.245 470.19,216.247 	"/>
	<polygon fill="#84C28F" points="415.18,271.254 415.267,271.341 415.267,271.167 	"/>
	<polygon fill="#5D5D5D" points="394.516,249.46 394.281,249.694 394.516,249.928 	"/>
	<polygon fill="#70A45B" points="490.486,196.122 470.275,216.332 490.486,236.543 	"/>
	<polygon fill="#A62656" points="190.401,305.585 190.402,265.163 170.19,285.374 	"/>
	<polygon fill="#DAC73A" points="432.16,70.779 410.958,49.578 410.957,91.982 	"/>
	<polygon fill="#4A6ECE" points="378.087,265.889 359.358,284.617 378.088,303.347 	"/>
	<polygon fill="#AEC161" points="378.088,265.888 378.089,303.348 396.818,284.618 	"/>
	<polygon fill="#4A6ECE" points="378.089,303.348 396.818,322.077 396.818,284.618 	"/>
	<polygon fill="#2A3480" points="415.179,340.438 415.179,303.999 396.96,322.219 	"/>
	<polygon fill="#AEC161" points="396.818,322.077 415.179,303.718 415.179,302.979 396.818,284.618 	"/>
	<polygon fill="#2A418E" points="379.904,417.827 379.904,376.733 359.357,397.28 	"/>
	<polygon fill="#B32149" points="170.189,209.58 158.63,221.14 170.19,232.7 	"/>
	<polygon fill="#B32149" points="63.093,417.826 74.654,429.387 74.653,406.267 	"/>
	<polygon fill="#3659BC" points="480.017,408.067 480.017,384.945 468.456,396.506 	"/>
	<polygon fill="#5489C0" points="470.19,285.171 470.19,326.265 490.737,305.718 	"/>
	<polygon fill="#2A3480" points="415.179,341.459 397.874,358.765 397.874,366.858 397.859,366.844 397.859,488.361 
		415.375,470.846 415.374,462.752 415.389,462.767 415.389,382.674 414.585,381.87 415.389,381.066 415.389,381.066 
		415.178,381.277 	"/>
	<polygon fill="#E17432" points="378.088,265.888 394.281,249.694 394.516,249.46 405.808,238.168 387.085,219.445 385.064,217.425 
		385.064,217.426 359.36,191.722 359.358,284.617 378.087,265.889 	"/>
	<polygon fill="#64A1D2" points="424.017,280.091 415.18,288.928 415.179,302.979 415.179,302.979 415.179,303.718 415.179,303.999 
		415.179,340.438 415.689,340.948 415.179,341.459 415.179,341.459 415.178,381.277 415.389,381.066 452.667,343.788 
		452.668,308.742 	"/>
	<polygon fill="#64A1D2" points="415.18,271.688 415.396,271.471 415.267,271.341 415.18,271.254 	"/>
	<polygon fill="#64A1D2" points="415.18,274.527 415.18,278.889 418.997,275.071 416.816,272.891 	"/>
	<polygon fill="#64A1D2" points="415.18,281.729 415.18,286.089 422.598,278.672 420.417,276.491 	"/>
	<polygon fill="#6E1939" points="237.824,399.375 253.19,414.742 253.19,384.008 	"/>
	<polygon fill="#ABCF5F" points="425.825,246.854 425.835,249.47 415.267,260.038 415.267,264.4 425.854,253.813 425.865,256.641 
		415.267,267.24 415.267,271.167 415.267,271.341 432.79,253.818 	"/>
	<polygon fill="#ABCF5F" points="422.12,243.148 415.267,236.295 415.267,249.999 	"/>
	<polygon fill="#ABCF5F" points="415.267,252.838 415.267,257.2 425.719,246.748 423.538,244.566 	"/>
	<polygon fill="#5890C0" points="452.667,343.788 452.666,363.757 480.175,336.249 470.19,326.265 452.668,308.742 	"/>
	<polygon fill="#CBDB42" points="448.121,234.715 448.121,210.883 415.266,178.031 415.266,191.264 415.266,236.294 
		415.267,236.295 422.12,243.148 425.795,239.475 425.807,242.298 423.538,244.566 425.719,246.748 425.824,246.643 
		425.825,246.854 432.79,253.818 450.007,236.601 	"/>
	<polygon fill="#CBDB42" points="457.686,228.922 470.19,216.417 470.275,216.332 470.19,216.247 470.188,216.245 457.686,203.743 	
		"/>
	<polygon fill="#E1782A" points="385.064,217.425 385.064,182.831 385.064,166.017 359.36,191.722 385.064,217.426 	"/>
	<polygon fill="#E3BC37" points="392.778,31.399 392.778,67.757 410.957,49.578 	"/>
	<polygon fill="#DFAE2E" points="386.884,11.639 379.618,18.904 386.884,26.17 	"/>
	<polygon fill="#A6C442" points="448.218,210.98 448.121,210.883 448.121,234.715 450.007,236.601 457.686,244.281 457.686,228.922 
		457.686,203.743 457.687,163.266 448.121,153.712 448.121,154.825 	"/>
	<polygon fill="#E4BD36" points="410.363,141.145 410.363,116.27 400.312,106.218 400.313,150.77 400.313,151.195 	"/>
	<polygon fill="#B3BA36" points="459.348,130.992 459.347,175.972 481.837,153.481 	"/>
	<polygon fill="#3658AE" points="415.389,382.674 445.148,412.434 445.149,351.307 415.389,381.066 414.585,381.87 	"/>
	<polygon fill="#3F3D8D" points="359.352,454.234 387.829,425.757 359.352,397.279 	"/>
	<polygon fill="#4D80C8" points="415.689,340.948 415.179,340.438 396.96,322.219 396.818,322.077 378.089,303.348 378.088,303.347 
		359.358,284.617 359.357,397.28 379.904,376.733 415.179,341.459 	"/>
	<polygon fill="#9B1F27" points="217.109,160.49 217.109,140.737 207.223,150.624 212.302,155.703 212.302,155.683 	"/>
	<polygon fill="#A41E32" points="226.996,150.624 217.119,160.5 226.997,170.378 	"/>
	<polygon fill="#B72D31" points="236.882,160.511 227.006,170.388 236.882,180.264 	"/>
	<polygon fill="#DACC3C" points="410.363,115.997 448.119,153.69 448.119,58.41 400.312,106.218 410.363,116.27 	"/>
	<polygon fill="#AC331E" points="246.938,103.606 246.938,85.952 229.284,103.606 246.938,121.26 	"/>
	<polygon fill="#A72145" points="212.672,229.122 234.281,250.732 234.281,206.772 212.674,228.38 	"/>
	<polygon fill="#B52B61" points="254.79,255.763 251.359,252.332 254.756,248.936 254.756,230.341 243.918,241.179 243.917,283.23 
		254.831,294.086 254.831,286.768 	"/>
	<polygon fill="#B52B61" points="222.836,262.261 234.351,273.715 234.352,250.745 	"/>
	<polygon fill="#6A206D" points="284.4,285.354 284.4,285.374 284.4,285.354 	"/>
	<polygon fill="#6A206D" points="254.831,255.804 254.831,286.768 254.831,294.086 254.831,294.105 254.841,294.096 
		254.841,309.218 254.831,309.228 254.831,324.11 258.749,328.023 258.749,351.893 304.841,305.801 284.4,285.374 	"/>
	<polygon fill="#6A206D" points="284.4,285.374 284.41,285.363 284.41,285.363 	"/>
	<polygon fill="#E28A2F" points="337.318,88.764 337.318,88.766 337.42,88.664 337.42,113.448 355.299,95.57 355.064,95.336 
		337.318,77.59 337.318,88.563 337.419,88.663 	"/>
	<polygon fill="#D37020" points="321.704,72.949 292.765,44.009 292.765,82.724 302.348,92.306 	"/>
	<polygon fill="#BA3A1E" points="292.765,101.889 302.348,92.306 292.765,82.724 284.632,74.591 284.632,116.944 284.649,110.004 	
		"/>
	<polygon fill="#B9381E" points="246.938,139.733 265.001,121.67 246.938,103.606 246.938,121.26 	"/>
	<polygon fill="#D67122" points="337.318,88.764 337.419,88.663 337.318,88.563 321.704,72.949 321.704,104.378 	"/>
	<polygon fill="#D66825" points="337.419,120.092 334.039,116.712 321.704,104.378 321.704,129.084 321.71,129.078 321.71,135.801 
		330.187,127.324 	"/>
	<polygon fill="#CA3732" points="334.039,116.711 337.419,120.092 337.42,120.093 337.42,113.448 337.42,88.664 337.318,88.766 
		321.705,104.378 	"/>
	<polygon fill="#CB4823" points="321.704,171.6 321.704,135.807 321.71,135.813 321.71,135.811 321.705,135.806 321.71,135.801 
		321.71,135.801 321.71,129.078 321.704,129.084 321.696,129.092 321.696,129.108 284.594,166.21 284.593,166.364 321.673,203.445 
		321.71,171.604 321.71,171.604 321.705,171.599 	"/>
	<polygon fill="#E7BB32" points="355.177,40.347 355.177,76.474 373.239,58.41 	"/>
	<polygon fill="#982227" points="212.299,155.815 190.402,177.712 212.299,199.608 	"/>
	<polygon fill="#90AB3C" points="473.758,129.078 495.654,150.975 495.654,129.078 495.654,107.182 	"/>
	<polygon fill="#84C28F" points="29.611,14.631 22.345,21.896 29.611,29.162 	"/>
	<polygon fill="#CCDD49" points="44.734,29.754 29.611,14.631 29.612,44.876 	"/>
	<polygon fill="#CA3732" points="22.345,43.793 18.662,40.11 13.896,44.876 29.611,60.591 29.611,29.162 22.345,36.427 	"/>
	<polygon fill="#E3BC37" points="18.662,40.11 22.345,43.793 22.345,36.427 22.345,21.896 22.345,0 0.449,21.896 	"/>
	<polygon fill="#6DA052" points="500,133.424 500,124.732 495.654,129.078 	"/>
	<polygon fill="#C6363A" points="321.704,135.807 321.704,171.6 321.705,171.599 339.601,153.703 321.71,135.813 	"/>
	<polygon fill="#CA3732" points="339.602,153.702 339.601,153.703 321.705,171.599 321.71,171.604 339.602,189.495 339.602,189.494 
			"/>
	<polygon fill="#CA3732" points="330.206,127.306 330.188,127.325 321.71,135.801 321.705,135.806 321.71,135.811 330.206,144.307 	
		"/>
	<polygon fill="#CA3732" points="330.206,144.307 338.706,152.807 338.706,135.806 	"/>
	<polygon fill="#D25D1D" points="330.206,144.307 338.706,135.806 330.206,127.306 	"/>
	<polygon fill="#D25D1D" points="338.706,152.807 347.207,144.307 338.706,135.806 	"/>
	<polygon fill="#D25D1D" points="347.207,161.308 353.371,155.143 353.386,150.486 347.207,144.307 	"/>
	<polygon fill="#CA3732" points="347.207,144.307 338.706,152.807 339.602,153.702 347.207,161.308 	"/>
	<polygon fill="#CA3732" points="353.35,161.604 353.371,155.143 347.207,161.308 354.236,168.337 355.707,166.866 355.707,159.246 
			"/>
	<polygon fill="#D9631F" points="353.375,175.722 339.602,189.495 359.325,209.218 359.325,177.489 353.35,183.465 	"/>
	<polygon fill="#7A3DA0" points="304.853,335.126 304.943,335.217 319.604,320.556 304.852,305.813 	"/>
	<polygon fill="#703F9D" points="304.852,335.125 304.853,364.633 304.853,364.447 304.945,364.54 319.606,349.879 304.943,335.217 
		304.853,335.126 	"/>
	<polygon fill="#423183" points="304.853,364.633 304.853,393.955 319.606,379.201 304.945,364.54 304.853,364.447 	"/>
	<polygon fill="#5E1E62" points="304.847,305.807 260.775,349.879 304.853,393.955 304.851,305.812 	"/>
	<polygon fill="#5C3586" points="319.606,408.709 304.853,393.955 304.853,423.463 	"/>
	<polygon fill="#4B3D9D" points="330.232,342.883 330.232,379.416 348.499,361.15 	"/>
	<polygon fill="#A9347B" points="359.333,284.654 359.333,284.654 359.333,284.654 359.335,284.656 359.335,209.229 
		321.621,246.943 	"/>
	<polygon fill="#D43E86" points="321.709,203.482 321.71,203.481 321.71,203.482 321.71,203.482 321.71,203.482 321.621,246.943 
		359.335,209.229 321.71,171.604 321.673,203.445 	"/>
	<polygon fill="#84C28F" points="20.815,459.268 0.449,479.634 20.815,500 20.815,489.08 	"/>
	<polygon fill="#D43E86" points="20.904,413.741 20.815,489.08 58.529,451.366 	"/>
	<polygon fill="#5843A7" points="359.335,284.658 359.333,284.656 359.333,284.66 	"/>
	<polygon fill="#5843A7" points="345.207,270.53 345.206,271.757 345.207,298.78 359.332,284.655 	"/>
	<polygon fill="#792880" points="345.207,270.529 321.621,246.943 321.622,294.113 	"/>
	<polygon fill="#AC2775" points="298.313,226.99 298.313,228.461 297.578,227.727 294.172,231.149 298.313,235.291 298.312,239.737 
		291.953,233.378 288.546,236.801 298.312,246.567 298.312,251.012 286.329,239.029 284.509,240.857 306.276,262.78 
		306.077,219.188 	"/>
	<polygon fill="#A02264" points="284.509,219.188 283.359,220.338 284.505,221.484 	"/>
	<polygon fill="#A02264" points="284.442,259.693 278.267,253.518 278.265,249.072 284.449,255.257 284.461,248.437 
		278.266,242.242 278.267,237.795 284.468,243.998 284.479,237.179 278.267,230.966 278.266,226.52 284.486,232.741 
		284.498,225.923 281.136,222.561 254.756,248.947 254.756,248.936 251.359,252.332 254.79,255.763 254.831,255.804 284.4,285.374 
		284.4,285.354 	"/>
	<polygon fill="#912271" points="284.501,244.03 298.312,257.842 298.312,262.287 284.49,248.466 284.474,255.28 298.311,269.117 
		298.311,271.007 306.276,262.78 284.509,240.857 	"/>
	<polygon fill="#912271" points="297.054,272.305 284.463,259.714 284.4,285.354 284.4,285.374 284.41,285.363 	"/>
	<polygon fill="#7C1F6F" points="298.312,273.563 297.056,272.307 284.41,285.363 284.4,285.374 304.841,305.801 304.847,305.807 
		304.851,305.812 304.852,305.813 319.604,320.556 321.521,322.471 321.621,246.943 298.311,271.012 	"/>
	<path fill="#3342A2" d="M359.333,284.654L359.333,284.654l-14.126,14.126l-23.657,23.657l37.664,37.664l0.119-75.441v-0.004
		V284.654L359.333,284.654L359.333,284.654z M350.449,344.621l-0.005-6.073l5.072,5.072l0.021,6.089L350.449,344.621z
		 M350.449,335.305l-0.005-6.073l5.072,5.072l0.021,6.089L350.449,335.305z M350.448,325.988l-0.004-6.073l5.072,5.072l0.021,6.089
		L350.448,325.988z"/>
	<polygon fill="#2E4497" points="332.666,423.23 359.111,396.787 359.212,360.102 332.767,386.547 	"/>
	<polygon fill="#BC3E66" points="284.464,203.338 283.111,201.985 279.696,205.4 284.483,210.187 	"/>
	<polygon fill="#BC3E66" points="281.136,222.561 278.266,219.691 278.267,215.246 283.359,220.338 284.509,219.188 
		284.496,214.645 278.267,208.415 278.267,206.83 254.756,230.341 254.756,248.936 254.756,248.947 	"/>
	<polygon fill="#5648A9" points="345.207,270.529 321.622,294.113 321.528,322.422 345.186,298.764 345.206,271.757 345.207,270.53 
			"/>
	<polygon fill="#A72145" points="212.302,228.752 212.302,228.749 199.783,241.27 199.729,256.484 212.62,243.594 212.672,229.122 
		212.674,228.38 	"/>
	<polygon fill="#5F977C" points="478.233,279.942 491.124,267.052 491.179,251.835 478.287,264.728 	"/>
	<polygon fill="#314F9F" points="428.223,456.294 437.317,447.199 437.357,436.464 428.263,445.558 	"/>
	<polygon fill="#D37020" points="93.341,101.897 102.435,92.803 102.476,82.067 93.38,91.161 	"/>
	<polygon fill="#8F1F60" points="254.841,294.096 254.831,294.105 241.951,306.986 241.951,322.201 254.831,309.228 
		254.841,309.218 	"/>
	<polygon fill="#8D1C4D" points="216.522,316.689 224.458,308.756 224.491,299.391 216.556,307.326 	"/>
	<polygon fill="#B1273E" points="243.918,241.179 254.756,230.34 254.756,170.94 278.267,194.451 278.267,192.7 284.475,198.907 
		284.509,189.582 284.509,166.295 284.507,166.297 284.592,132.595 236.902,180.284 248.835,192.218 234.355,206.698 
		234.355,206.774 243.918,216.325 	"/>
	<polygon fill="#B1273E" points="284.593,166.364 284.594,166.21 284.516,166.288 	"/>
	<polygon fill="#D15026" points="284.507,166.297 284.509,166.295 284.509,166.28 284.516,166.288 284.594,166.21 321.696,129.108 
		321.696,129.092 321.704,72.949 302.348,92.306 292.765,101.889 284.649,110.004 284.632,116.944 284.592,132.595 	"/>
	<polygon fill="#B3D143" points="463.837,198.475 473.075,207.712 473.038,193.73 463.837,184.531 	"/>
	<polygon fill="#C73274" points="306.077,219.188 306.276,262.78 321.621,246.943 321.71,203.482 	"/>
	<polygon fill="#C73274" points="321.71,203.481 321.709,203.482 321.71,203.482 	"/>
	<polygon fill="#BA2E67" points="278.267,203.97 279.696,205.4 283.111,201.985 278.267,197.141 278.267,194.451 254.756,170.94 
		254.756,230.34 254.756,230.341 278.267,206.83 	"/>
	<polygon fill="#B5214A" points="236.902,180.284 236.882,180.264 227.006,170.388 226.997,170.378 217.119,160.5 217.109,160.49 
		212.302,155.683 212.302,155.703 212.302,228.749 212.302,228.752 212.674,228.38 234.281,206.772 234.355,206.698 
		248.835,192.218 	"/>
	<polygon fill="#D25D1D" points="339.602,189.494 353.375,175.721 353.396,169.177 354.232,168.341 339.603,153.712 	"/>
	<polygon fill="#D25D1D" points="355.707,159.246 355.707,166.866 362.737,159.837 359.36,156.46 358.927,156.026 	"/>
	<polygon fill="#CA3732" points="364.208,178.309 364.208,172.606 361.357,175.458 	"/>
	<polygon fill="#5F1D62" points="254.831,324.11 253.19,322.472 253.19,384.008 253.19,414.742 253.19,414.755 258.749,420.313 
		258.749,351.893 258.749,328.023 	"/>
	<polygon fill="#E5C238" points="385.064,122.604 385.064,64.838 385.064,51.224 379.506,45.672 379.506,70.489 379.505,117.046 	
		"/>
	<polygon fill="#FFFFFF" points="350.444,319.915 350.448,325.988 355.537,331.076 355.517,324.987 	"/>
	<polygon fill="#FFFFFF" points="350.444,329.231 350.449,335.305 355.537,340.393 355.517,334.304 	"/>
	<polygon fill="#FFFFFF" points="350.444,338.548 350.449,344.621 355.537,349.709 355.517,343.62 	"/>
	<polygon fill="#C53074" points="243.918,241.179 243.918,216.325 234.355,206.774 234.353,206.771 234.352,250.745 
		234.351,273.715 234.351,287.775 243.917,297.342 243.917,283.23 243.918,241.179 	"/>
	<polygon fill="#DACC3C" points="8.45,195.37 0,186.931 0,305.485 8.449,313.934 	"/>
	<path fill="#A8AB33" d="M410.363,116.27v24.875v31.985l4.902,4.902l32.855,32.852l0.097,0.097l-0.097-56.155l-0.002-1.134
		l-37.756-37.693V116.27z M448.153,174.439v22.902l-11.451-11.452l-11.452-11.452l-11.45-11.452l11.45-11.45v22.902l11.451-11.452
		l0.001,22.903L448.153,174.439z"/>
	<polygon fill="#E8DE3F" points="425.25,151.536 413.8,162.986 425.25,174.438 	"/>
	<polygon fill="#CBDD43" points="436.701,162.986 425.25,174.438 436.702,185.89 	"/>
	<polygon fill="#E8DE3F" points="436.702,185.89 448.153,197.341 448.153,174.439 	"/>
	<polygon fill="#C42F73" points="284.509,214.657 284.509,219.188 284.509,221.487 294.172,231.149 297.578,227.727 	"/>
	<polygon fill="#C42F73" points="284.509,225.934 284.509,232.764 288.546,236.801 291.953,233.378 	"/>
	<polygon fill="#C42F73" points="284.509,237.208 284.509,240.857 286.329,239.029 	"/>
	<polygon fill="#C42F73" points="284.509,166.28 284.509,166.295 284.509,189.582 284.509,198.94 298.313,212.741 298.312,217.186 
		284.509,203.383 284.509,210.212 298.312,224.015 298.313,226.99 306.077,219.188 306.077,219.188 321.71,203.482 321.71,203.482 
		321.71,203.482 321.709,203.482 321.673,203.445 284.593,166.364 284.516,166.288 	"/>
	<polygon fill="#FFFFFF" points="363.984,114.867 359.36,119.491 353.397,125.454 353.35,139.742 359.36,133.731 365.291,127.801 
		365.299,116.182 365.301,113.55 	"/>
	<polygon fill="#FFFFFF" points="353.386,150.486 353.371,155.143 353.35,161.604 355.707,159.246 358.927,156.026 359.36,155.593 
		365.29,149.663 365.301,135.411 359.36,141.352 353.396,147.315 	"/>
	<polygon fill="#FFFFFF" points="364.208,172.606 365.29,171.524 365.301,157.273 362.737,159.837 355.707,166.866 354.236,168.337 
		354.232,168.341 353.396,169.177 353.375,175.721 353.375,175.722 353.35,183.465 359.325,177.489 359.36,177.454 361.357,175.458 
			"/>
	<polygon fill="#FFFFFF" points="284.474,255.28 284.449,255.257 278.265,249.072 278.267,253.518 284.442,259.693 284.463,259.714 
		297.054,272.305 297.056,272.307 298.312,273.563 298.311,271.012 298.311,271.007 298.311,269.117 	"/>
	<polygon fill="#FFFFFF" points="278.267,237.795 278.266,242.242 284.461,248.437 284.49,248.466 298.312,262.287 298.312,257.842 
		284.501,244.03 284.468,243.998 	"/>
	<polygon fill="#FFFFFF" points="283.111,201.985 284.464,203.338 284.509,203.383 298.312,217.186 298.313,212.741 284.509,198.94 
		284.475,198.907 278.267,192.7 278.267,194.451 278.267,197.141 	"/>
	<polygon fill="#FFFFFF" points="284.509,232.764 284.486,232.741 278.266,226.52 278.267,230.966 284.479,237.179 284.509,237.208 
		286.329,239.029 298.312,251.012 298.312,246.567 288.546,236.801 	"/>
	<polygon fill="#FFFFFF" points="279.696,205.4 278.267,203.97 278.267,206.83 278.267,208.415 284.496,214.645 284.509,214.657 
		297.578,227.727 298.313,228.461 298.313,226.99 298.312,224.015 284.509,210.212 284.483,210.187 	"/>
	<polygon fill="#FFFFFF" points="284.509,221.487 284.505,221.484 283.359,220.338 278.267,215.246 278.266,219.691 
		281.136,222.561 284.498,225.923 284.509,225.934 291.953,233.378 298.312,239.737 298.313,235.291 294.172,231.149 	"/>
	<polygon fill="#FFFFFF" points="415.18,286.089 413.243,288.025 413.255,290.853 415.18,288.928 424.017,280.091 425.953,278.154 
		425.941,275.328 422.598,278.672 	"/>
	<polygon fill="#FFFFFF" points="415.18,278.889 413.215,280.854 413.227,283.682 415.18,281.729 420.417,276.491 425.923,270.984 
		425.911,268.157 418.997,275.071 	"/>
	<polygon fill="#FFFFFF" points="415.267,249.999 413.097,252.168 413.108,254.996 415.267,252.838 423.538,244.566 
		425.807,242.298 425.795,239.475 422.12,243.148 	"/>
	<polygon fill="#FFFFFF" points="415.18,271.688 413.185,273.683 413.197,276.51 415.18,274.527 416.816,272.891 425.895,263.813 
		425.883,260.985 415.396,271.471 	"/>
	<polygon fill="#FFFFFF" points="415.267,257.2 413.127,259.34 413.138,262.167 415.267,260.038 425.835,249.47 425.825,246.854 
		425.824,246.643 425.719,246.748 	"/>
	<polygon fill="#FFFFFF" points="413.168,269.339 415.267,267.24 425.865,256.641 425.854,253.813 415.267,264.4 413.155,266.512 	
		"/>
	<polygon fill="#AE1E74" points="97.967,245.491 94.223,245.491 94.223,237.678 93.092,237.678 93.092,246.44 97.967,246.44 	"/>
	<path fill="#AE1E74" d="M69.289,245.699c0.441-0.429,0.741-1.001,0.741-1.755c0-1.3-0.976-1.989-1.808-2.197v-0.026
		c0.923-0.338,1.482-1.079,1.482-1.924c0-0.689-0.273-1.209-0.729-1.547c-0.546-0.442-1.273-0.637-2.405-0.637
		c-0.793,0-1.572,0.078-2.066,0.182v8.62c0.377,0.052,0.975,0.104,1.755,0.104C67.689,246.519,68.678,246.258,69.289,245.699z
		 M65.636,238.562c0.182-0.039,0.481-0.078,1.001-0.078c1.145,0,1.924,0.403,1.924,1.43c0,0.845-0.702,1.469-1.897,1.469h-1.027
		V238.562z M65.636,242.241h0.936c1.235,0,2.263,0.494,2.263,1.69c0,1.274-1.079,1.703-2.249,1.703
		c-0.403,0-0.729-0.013-0.949-0.052V242.241z"/>
	<path fill="#AE1E74" d="M83.42,242.865c0,1.937-0.832,2.795-2.132,2.795c-1.17,0-2.041-0.832-2.041-2.795v-5.187h-1.145v5.161
		c0,2.717,1.353,3.744,3.146,3.744c1.898,0,3.315-1.105,3.315-3.796v-5.109H83.42V242.865z"/>
	<path fill="#AE1E74" d="M111.98,246.44l-3.42-5.044l3.173-3.718h-1.404l-2.679,3.289c-0.221,0.286-0.455,0.598-0.688,0.936h-0.039
		v-4.225h-1.131v8.762h1.131v-3.341l0.832-0.962l2.886,4.303H111.98z"/>
	<path fill="#001F6B" d="M127.323,257.566v-0.035c0.852-0.289,1.523-0.996,1.523-2.064c0-0.623-0.228-1.174-0.636-1.535
		c-0.504-0.455-1.224-0.658-2.339-0.658c-0.72,0-1.475,0.059-2.003,0.168v7.975h1.044v-3.502h0.983
		c0.947,0.037,1.379,0.457,1.619,1.572c0.228,1.006,0.407,1.703,0.54,1.93h1.079c-0.168-0.311-0.36-1.092-0.624-2.219
		C128.319,258.357,127.947,257.783,127.323,257.566z M125.98,257.123h-1.067v-2.951c0.168-0.047,0.527-0.096,1.031-0.096
		c1.104,0.012,1.859,0.469,1.859,1.512C127.803,256.512,127.095,257.123,125.98,257.123z"/>
	<polygon fill="#001F6B" points="109.985,257.627 113.127,257.627 113.127,256.764 109.985,256.764 109.985,254.209 
		113.307,254.209 113.307,253.332 108.941,253.332 108.941,261.416 113.487,261.416 113.487,260.541 109.985,260.541 	"/>
	<path fill="#001F6B" d="M68.129,253.332l-2.747,8.084h1.08l0.839-2.543h2.866l0.864,2.543h1.115l-2.758-8.084H68.129z
		 M67.517,258.059l0.792-2.34c0.156-0.49,0.288-0.982,0.408-1.463h0.024c0.12,0.469,0.24,0.947,0.419,1.477l0.792,2.326H67.517z"/>
	<path fill="#001F6B" d="M53.523,253.332l-1.439,3.91c-0.36,1.02-0.647,1.908-0.852,2.723h-0.036
		c-0.204-0.84-0.479-1.727-0.815-2.723l-1.379-3.91H47.67l-0.563,8.084h0.995l0.216-3.465c0.072-1.213,0.132-2.566,0.156-3.574
		h0.024c0.228,0.959,0.552,2.002,0.936,3.143l1.307,3.85h0.792l1.427-3.922c0.408-1.115,0.744-2.123,1.02-3.07h0.036
		c-0.012,1.008,0.06,2.361,0.12,3.49l0.204,3.549h1.02l-0.504-8.084H53.523z"/>
	<rect x="82.362" y="253.332" fill="#001F6B" width="1.043" height="8.084"/>
	<polygon fill="#001F6B" points="95.297,253.332 94.253,253.332 94.253,261.416 98.751,261.416 98.751,260.541 95.297,260.541 	"/>
</g>
</svg>
