<?xml version="1.0" encoding="utf-8"?>
<!-- Generator: Adobe Illustrator 16.0.0, SVG Export Plug-In . SVG Version: 6.00 Build 0)  -->
<svg version="1.2" baseProfile="tiny" id="BACKGROUND_1"
	 xmlns="http://www.w3.org/2000/svg" xmlns:xlink="http://www.w3.org/1999/xlink" x="0px" y="0px" width="500px" height="500px"
	 viewBox="0 0 500 500" xml:space="preserve">
<g>
	<g>
		<rect x="209.266" y="269.746" fill="#FFFFFF" width="0.003" height="18.176"/>
		<rect x="153.511" y="172.869" fill="#FFFFFF" width="0.001" height="19.479"/>
		<rect x="250.663" y="228.096" fill="#FFFFFF" width="0" height="15.327"/>
		<polygon fill="#FFFFFF" points="161.294,152.807 160.398,153.702 160.399,153.703 178.29,135.813 178.29,135.811 169.794,144.307 
					"/>
		<polygon fill="#FFFFFF" points="84.821,303.999 103.04,322.219 103.182,322.077 84.821,303.718 		"/>
		<polygon fill="#FFFFFF" points="215.525,198.907 215.491,189.582 215.491,198.94 		"/>
		<polygon fill="#FFFFFF" points="165.961,116.711 165.961,116.712 178.296,104.378 162.682,88.764 162.682,88.766 178.295,104.378 
					"/>
		<polygon fill="#FFFFFF" points="84.821,302.979 84.821,302.979 103.182,284.618 		"/>
		<polygon fill="#FFFFFF" points="145.764,168.337 145.768,168.341 160.397,153.712 160.398,189.494 160.398,153.702 
			152.793,161.308 		"/>
		
			<rect x="168.058" y="131.563" transform="matrix(-0.7071 -0.7071 0.7071 -0.7071 204.1081 347.6629)" fill="#FFFFFF" width="11.988" height="0"/>
		<path fill="#FFFFFF" d="M491.551,313.934V195.37l8.449-8.439V0h-22.346l21.896,21.896L481.337,40.11l4.767,4.766l-15.715,15.715
			V44.876l-15.123-15.122l15.123-15.124l7.266,7.266V0H0v124.732l4.346,4.346v-21.896l21.896,21.896L4.346,150.975v-21.896
			L0,133.424V500h479.186v-10.92l-37.715-37.714l37.625-37.625l0.09,75.339v-29.813l20.365,20.366L479.186,500H500V305.485
			L491.551,313.934z M15.294,103.544v-14.88l7.44,7.44L15.294,103.544z M253.062,103.606V85.952l17.654,17.654l-17.654,17.653
			v18.474l-18.063-18.063L253.062,103.606z M144.823,40.347v36.127L126.761,58.41L144.823,40.347z M113.116,11.639l7.266,7.266
			l-7.266,7.266V11.639z M107.222,31.399v36.357L89.043,49.578L107.222,31.399z M89.042,49.578l0.001,42.404L67.84,70.779
			L89.042,49.578z M40.652,130.992l0.001,44.979l-22.49-22.49L40.652,130.992z M36.163,184.531v13.943l-9.238,9.237l0.037-13.981
			L36.163,184.531z M8.821,251.835l12.892,12.893l0.054,15.215L8.876,267.052L8.821,251.835z M19.983,408.067v-23.122l11.561,11.561
			L19.983,408.067z M62.683,447.199l-0.04-10.735l9.095,9.094l0.04,10.736L62.683,447.199z M140.648,454.234l-28.478-28.478
			l28.478-28.478V454.234z M140.889,396.787l-0.101-36.686l26.445,26.445l0.101,36.684L140.889,396.787z M169.768,379.416
			l-18.267-18.266l18.267-18.268V379.416z M275.543,308.756l-0.033-9.365l7.935,7.936l0.033,9.363L275.543,308.756z
			 M287.381,243.594l-0.052-14.473l-21.61,21.612v-43.96l-0.074-0.074v0.075l0.002-0.002l0.002,43.973l11.516,11.516l-11.516,11.454
			l0.001,14.061l-9.567,9.566V283.23l-10.913,10.855v0.02l12.88,12.881v15.215l-12.88-12.974v14.883l1.641-1.639v61.536
			l15.366,15.367l-15.366,15.367v0.013l-5.559,5.559v-68.421l-46.091-46.092l-0.006,0.006l44.071,44.072l-44.077,44.076v29.508
			l-14.754-14.754l14.754-14.754l-14.754-14.754l14.661-14.661l-14.661-14.661l14.663-14.662l-14.661-14.661l-1.916,1.915
			l-0.101-75.527l-0.001,47.17l0.094,28.309l-23.657-23.658l-0.021-27.007l-0.001,27.023l23.657,23.657l-37.664,37.664
			l-0.119-75.441l-0.002-0.002l0.002-0.002v-0.002l-0.002,0.002v-75.427l37.625-37.625v-0.001l-17.892,17.892l-19.724,19.723
			v-31.729l-0.035-0.035v14.268l0.002,92.896l0.001,112.663l-20.547,20.547v-41.094l-35.274-35.274l0,0l17.305,17.306v8.094
			l0.015-0.015v121.518l-17.516-17.516l0.001-8.094l-0.015,0.015v-80.093l-29.76,29.76l-0.001-61.127l29.761,29.76l0,0
			l-37.278-37.278l0.001,19.969l-27.509-27.508l9.984-9.984L9.263,305.718l20.547-20.547v-68.754l-0.085-0.085L9.514,236.543
			v-40.421l20.211,20.21l0.085-0.085v-0.005l0.002,0.002l12.502-12.502l0-40.477l9.565-9.554v1.113l0.002-1.134V58.41l47.808,47.808
			l-0.001,44.552l15.247,15.248l0.001-0.001l-15.034-15.034l15.034-15.035v-13.343V64.838V51.224l5.559-5.552l0,24.817
			l24.441,24.847l17.746-17.746v10.973l15.614-15.613l28.939-28.94v38.715l8.133-8.133v42.354l0.04,15.651l47.69,47.689l0.02-0.02
			v-19.754l9.877,9.876l0.01-0.01v-19.753l9.877,9.875l0.01-0.01v-19.752l9.887,9.887l-5.08,5.08v73.044l12.52,12.521l0.055,15.215
			L287.381,243.594z M309.598,177.712l-21.896,21.896v-43.793L309.598,177.712z M309.6,305.585l-0.002-40.422l20.212,20.211
			L309.6,305.585z M329.81,232.7l0.001-23.12l11.56,11.56L329.81,232.7z M397.564,92.803l-0.04-10.735l9.095,9.094l0.04,10.736
			L397.564,92.803z M425.346,429.387l0.001-23.12l11.561,11.56L425.346,429.387z"/>
		<polygon fill="#FFFFFF" points="215.491,240.857 215.499,244.03 215.532,243.998 215.521,237.179 215.491,237.208 		"/>
		<polygon fill="#FFFFFF" points="215.491,232.764 215.514,232.741 215.502,225.923 215.491,225.934 		"/>
		<polygon fill="#FFFFFF" points="193.922,219.188 193.724,262.78 193.922,219.188 		"/>
		<polygon fill="#FFFFFF" points="178.296,129.084 178.304,129.092 178.296,72.949 178.296,104.378 		"/>
		<polygon fill="#FFFFFF" points="140.668,284.655 154.793,270.53 154.793,270.529 178.379,246.943 140.667,284.654 		"/>
		<polygon fill="#FFFFFF" points="477.654,36.427 477.654,21.896 470.389,29.162 		"/>
		<polygon fill="#FFFFFF" points="201.689,271.007 193.724,262.78 178.379,246.943 201.689,271.012 		"/>
		<polygon fill="#FFFFFF" points="215.526,255.28 215.55,255.257 215.539,248.437 215.51,248.466 		"/>
		<polygon fill="#FFFFFF" points="215.6,285.354 215.6,285.354 215.558,259.693 215.537,259.714 		"/>
		<rect x="121.911" y="265.888" fill="#FFFFFF" width="0.001" height="37.458"/>
		<polygon fill="#FFFFFF" points="245.169,286.768 245.21,255.763 245.169,255.804 		"/>
		<polygon fill="#FFFFFF" points="215.495,221.484 215.491,219.188 215.491,221.487 		"/>
		<polygon fill="#FFFFFF" points="215.536,203.338 215.491,203.383 215.491,210.212 215.517,210.187 		"/>
		<polygon fill="#FFFFFF" points="195.148,305.813 195.147,335.126 195.148,335.125 195.147,364.633 195.147,393.955 
			195.149,305.812 		"/>
		<polygon fill="#FFFFFF" points="215.491,219.188 215.504,214.645 215.491,214.657 		"/>
		<polygon fill="#DE8524" points="134.699,113.55 136.016,114.867 140.64,110.243 140.64,119.491 146.603,125.454 146.65,139.742 
			140.64,133.731 140.64,141.352 146.604,147.315 146.614,150.486 152.793,144.307 161.294,135.806 169.794,127.306 
			169.813,127.325 169.813,127.324 162.581,120.092 162.58,120.093 162.58,113.448 144.701,95.57 144.936,95.336 120.495,70.489 
			120.495,117.046 114.936,122.604 114.936,135.948 134.701,116.182 		"/>
		<polygon fill="#DE8524" points="140.64,155.593 140.64,156.46 141.073,156.026 		"/>
		<polygon fill="#DE8524" points="165.961,116.711 162.581,120.092 165.961,116.712 		"/>
		<polygon fill="#A5AC33" points="15.294,103.544 22.734,96.104 15.294,88.664 		"/>
		<polygon fill="#E0982B" points="135.792,178.309 135.792,172.606 134.71,171.524 134.699,157.273 137.263,159.837 140.64,156.46 
			140.64,155.593 134.71,149.663 134.699,135.411 140.64,141.352 140.64,133.731 134.709,127.801 134.701,116.182 114.936,135.948 
			99.901,150.982 114.936,166.017 114.936,166.017 140.64,191.722 140.64,177.454 138.643,175.458 		"/>
		<polygon fill="#E0982B" points="140.64,110.243 136.016,114.867 140.64,119.491 		"/>
		<polygon fill="#E8B032" points="89.637,141.145 89.637,173.129 84.734,178.031 84.734,191.264 112.916,219.445 114.936,217.425 
			114.936,182.831 114.936,166.017 114.936,166.017 114.935,166.018 99.688,150.77 99.688,151.195 		"/>
		<polygon fill="#E8E544" points="84.734,236.294 84.733,236.295 84.733,249.999 86.903,252.168 86.892,254.996 84.733,252.838 
			84.733,257.2 86.873,259.34 86.862,262.167 84.733,260.038 84.733,264.4 86.845,266.512 86.832,269.339 84.733,267.24 
			84.733,271.167 84.82,271.254 84.82,271.688 86.815,273.683 86.803,276.51 84.82,274.527 84.82,278.889 86.785,280.854 
			86.773,283.682 84.82,281.729 84.82,286.089 86.757,288.025 86.745,290.853 84.821,288.928 84.821,302.979 103.182,284.618 
			121.912,265.888 105.719,249.694 105.485,249.928 105.485,249.461 94.192,238.168 112.916,219.445 84.734,191.264 		"/>
		<polygon fill="#84C28F" points="75.983,280.091 74.047,278.154 74.059,275.328 77.402,278.672 79.583,276.491 74.077,270.984 
			74.089,268.157 81.003,275.071 83.184,272.891 74.105,263.813 74.117,260.985 84.604,271.471 84.733,271.341 67.21,253.818 
			49.993,236.601 42.314,244.281 42.314,228.922 29.81,216.417 29.81,285.171 29.81,326.265 47.332,308.742 		"/>
		<polygon fill="#84C28F" points="29.81,216.242 29.81,216.247 29.812,216.245 		"/>
		<polygon fill="#84C28F" points="84.733,271.167 84.733,271.341 84.82,271.254 		"/>
		<polygon fill="#5D5D5D" points="105.719,249.694 105.485,249.461 105.485,249.928 		"/>
		<polygon fill="#70A45B" points="9.514,236.543 29.725,216.332 9.514,196.122 		"/>
		<polygon fill="#A62656" points="309.6,305.585 329.81,285.374 309.598,265.163 		"/>
		<polygon fill="#DAC73A" points="89.042,49.578 67.84,70.779 89.043,91.982 		"/>
		<polygon fill="#4A6ECE" points="121.912,303.347 140.642,284.617 121.913,265.889 		"/>
		<polygon fill="#AEC161" points="121.911,303.348 121.912,265.888 103.182,284.618 		"/>
		<polygon fill="#4A6ECE" points="103.182,322.077 121.911,303.348 103.182,284.618 		"/>
		<polygon fill="#2A3480" points="84.821,340.438 103.04,322.219 84.821,303.999 		"/>
		<polygon fill="#AEC161" points="84.821,302.979 84.821,303.718 103.182,322.077 103.182,284.618 		"/>
		<polygon fill="#2A418E" points="120.096,417.827 140.643,397.28 120.096,376.733 		"/>
		<polygon fill="#B32149" points="329.81,232.7 341.37,221.14 329.811,209.58 		"/>
		<polygon fill="#B32149" points="425.346,429.387 436.907,417.826 425.347,406.267 		"/>
		<polygon fill="#3659BC" points="19.983,408.067 31.544,396.506 19.983,384.945 		"/>
		<polygon fill="#5489C0" points="9.263,305.718 29.81,326.265 29.81,285.171 		"/>
		<polygon fill="#2A3480" points="84.611,381.066 84.611,381.066 85.415,381.87 84.611,382.674 84.611,462.767 84.626,462.752 
			84.625,470.846 102.141,488.361 102.141,366.844 102.126,366.858 102.126,358.765 84.821,341.459 84.822,381.277 		"/>
		<polygon fill="#E17432" points="114.936,217.425 112.916,219.445 94.192,238.168 105.485,249.461 105.719,249.694 
			121.912,265.888 121.913,265.889 140.642,284.617 140.64,191.722 114.936,217.426 		"/>
		<polygon fill="#64A1D2" points="84.311,340.948 84.821,340.438 84.821,303.999 84.821,303.718 84.821,302.979 84.821,302.979 
			84.821,288.928 75.983,280.091 47.332,308.742 47.333,343.788 84.611,381.066 84.822,381.277 84.821,341.459 84.821,341.459 		"/>
		<polygon fill="#64A1D2" points="84.82,278.889 84.82,274.527 83.184,272.891 81.003,275.071 		"/>
		<polygon fill="#64A1D2" points="84.82,286.089 84.82,281.729 79.583,276.491 77.402,278.672 		"/>
		<polygon fill="#64A1D2" points="84.82,271.688 84.82,271.254 84.733,271.341 84.604,271.471 		"/>
		<polygon fill="#6E1939" points="262.176,399.375 246.81,384.008 246.81,414.742 		"/>
		<polygon fill="#ABCF5F" points="76.462,244.566 74.281,246.748 84.733,257.2 84.733,252.838 		"/>
		<polygon fill="#ABCF5F" points="77.88,243.148 84.733,249.999 84.733,236.295 		"/>
		<polygon fill="#ABCF5F" points="84.733,267.24 74.135,256.641 74.146,253.813 84.733,264.4 84.733,260.038 74.165,249.47 
			74.175,246.854 67.21,253.818 84.733,271.341 84.733,271.167 		"/>
		<polygon fill="#5890C0" points="29.81,326.265 19.825,336.249 47.334,363.757 47.333,343.788 47.332,308.742 		"/>
		<polygon fill="#CBDB42" points="42.314,203.743 29.812,216.245 29.81,216.247 29.725,216.332 29.81,216.417 42.314,228.922 		"/>
		<polygon fill="#CBDB42" points="74.175,246.854 74.176,246.643 74.281,246.748 76.462,244.566 74.193,242.298 74.205,239.475 
			77.88,243.148 84.733,236.295 84.734,236.294 84.734,191.264 84.734,178.031 51.879,210.883 51.879,234.715 49.993,236.601 
			67.21,253.818 		"/>
		<polygon fill="#E1782A" points="114.936,166.017 114.936,182.831 114.936,217.425 114.936,217.426 140.64,191.722 		"/>
		<polygon fill="#E3BC37" points="107.222,31.399 89.043,49.578 107.222,67.757 		"/>
		<polygon fill="#DFAE2E" points="113.116,11.639 113.116,26.17 120.382,18.904 		"/>
		<polygon fill="#A6C442" points="42.314,228.922 42.314,244.281 49.993,236.601 51.879,234.715 51.879,210.883 51.782,210.98 
			51.879,154.825 51.879,153.712 42.313,163.266 42.314,203.743 		"/>
		<polygon fill="#E4BD36" points="89.637,141.145 99.688,151.195 99.688,150.77 99.688,106.218 89.637,116.27 		"/>
		<polygon fill="#B3BA36" points="40.652,130.992 18.163,153.481 40.653,175.972 		"/>
		<polygon fill="#3658AE" points="84.611,381.066 54.851,351.307 54.852,412.434 84.611,382.674 85.415,381.87 		"/>
		<polygon fill="#3F3D8D" points="140.648,454.234 140.648,397.279 112.171,425.757 		"/>
		<polygon fill="#4D80C8" points="121.911,303.348 103.182,322.077 103.04,322.219 84.821,340.438 84.311,340.948 84.821,341.459 
			120.096,376.733 140.643,397.28 140.642,284.617 121.912,303.347 		"/>
		<polygon fill="#9B1F27" points="287.697,155.704 292.777,150.624 282.891,140.737 282.891,160.49 287.697,155.683 		"/>
		<polygon fill="#A41E32" points="273.004,150.624 273.004,170.377 282.881,160.5 		"/>
		<polygon fill="#B72D31" points="263.117,160.511 263.117,180.265 272.994,170.387 		"/>
		<polygon fill="#DACC3C" points="89.637,116.27 99.688,106.218 51.881,58.41 51.881,153.69 89.637,115.997 		"/>
		<polygon fill="#AC331E" points="270.716,103.606 253.062,85.952 253.062,103.606 253.062,121.26 		"/>
		<polygon fill="#A72145" points="265.719,206.772 265.719,250.732 287.329,229.121 287.326,228.381 		"/>
		<polygon fill="#B52B61" points="277.164,262.261 265.648,250.745 265.648,273.715 		"/>
		<polygon fill="#B52B61" points="245.244,230.341 245.244,248.936 248.641,252.332 245.21,255.763 245.169,286.768 
			245.169,294.086 256.082,283.23 256.082,241.179 		"/>
		<polygon fill="#6A206D" points="215.6,285.354 215.6,285.374 215.6,285.354 		"/>
		<polygon fill="#6A206D" points="245.169,255.804 215.6,285.374 195.16,305.801 241.251,351.893 241.251,328.023 245.169,324.11 
			245.169,309.228 245.159,309.218 245.159,294.096 245.169,294.105 245.169,294.086 245.169,286.768 		"/>
		<polygon fill="#6A206D" points="215.589,285.363 215.6,285.374 215.589,285.363 		"/>
		<polygon fill="#E28A2F" points="162.58,113.448 162.58,88.664 162.682,88.766 162.682,88.764 162.581,88.663 162.682,88.563 
			162.682,77.59 144.936,95.336 144.701,95.57 		"/>
		<polygon fill="#D37020" points="207.235,82.724 207.235,44.009 178.296,72.949 197.652,92.306 		"/>
		<polygon fill="#BA3A1E" points="207.235,101.889 215.351,110.004 215.368,116.944 215.368,74.591 207.235,82.724 197.652,92.306 
					"/>
		<polygon fill="#B9381E" points="253.062,121.26 253.062,103.606 234.999,121.67 253.062,139.733 		"/>
		<polygon fill="#D67122" points="162.682,88.764 178.296,104.378 178.296,72.949 162.682,88.563 162.581,88.663 		"/>
		<polygon fill="#D66825" points="165.961,116.712 162.581,120.092 169.813,127.324 178.29,135.801 178.29,129.078 178.296,129.084 
			178.296,104.378 		"/>
		<polygon fill="#CA3732" points="178.295,104.378 162.682,88.766 162.58,88.664 162.58,113.448 162.58,120.093 162.581,120.092 
			165.961,116.711 		"/>
		<polygon fill="#CB4823" points="215.407,166.364 215.406,166.21 178.304,129.108 178.304,129.092 178.296,129.084 178.29,129.078 
			178.29,135.801 178.29,135.801 178.295,135.806 178.29,135.811 178.29,135.813 178.296,135.807 178.296,171.6 178.295,171.599 
			178.29,171.604 178.29,171.604 178.328,203.445 		"/>
		<polygon fill="#E7BB32" points="144.823,40.347 126.761,58.41 144.823,76.474 		"/>
		<polygon fill="#982227" points="287.701,199.608 309.598,177.712 287.701,155.815 		"/>
		<polygon fill="#90AB3C" points="26.242,129.078 4.346,107.182 4.346,129.078 4.346,150.975 		"/>
		<polygon fill="#84C28F" points="477.654,21.896 470.389,14.631 470.389,29.162 		"/>
		<polygon fill="#CCDD49" points="470.389,14.631 455.266,29.754 470.389,44.876 470.389,29.162 		"/>
		<polygon fill="#CA3732" points="477.654,36.427 470.389,29.162 470.389,44.876 470.389,60.591 486.104,44.876 481.337,40.11 
			477.654,43.793 		"/>
		<polygon fill="#E3BC37" points="477.654,36.427 477.654,43.793 481.337,40.11 499.551,21.896 477.654,0 477.654,21.896 		"/>
		<polygon fill="#6DA052" points="0,124.732 0,133.424 4.346,129.078 		"/>
		<polygon fill="#C6363A" points="178.295,171.599 178.296,171.6 178.296,135.807 178.29,135.813 160.399,153.703 		"/>
		<polygon fill="#CA3732" points="160.399,153.703 160.398,153.702 160.398,189.494 160.398,189.495 178.29,171.604 
			178.295,171.599 		"/>
		<polygon fill="#CA3732" points="169.794,127.306 169.794,144.307 178.29,135.811 178.295,135.806 178.29,135.801 169.813,127.325 
					"/>
		<polygon fill="#CA3732" points="161.294,152.807 169.794,144.307 161.294,135.806 		"/>
		<polygon fill="#D25D1D" points="169.794,144.307 169.794,127.306 161.294,135.806 		"/>
		<polygon fill="#D25D1D" points="161.294,152.807 161.294,135.806 152.793,144.307 		"/>
		<polygon fill="#D25D1D" points="146.629,155.143 152.793,161.308 152.793,144.307 146.614,150.486 		"/>
		<polygon fill="#CA3732" points="152.793,144.307 152.793,161.308 160.398,153.702 161.294,152.807 		"/>
		<polygon fill="#CA3732" points="146.629,155.143 146.65,161.604 144.293,159.246 144.293,166.866 145.764,168.337 
			152.793,161.308 		"/>
		<polygon fill="#D9631F" points="146.65,183.465 140.675,177.489 140.675,209.218 160.398,189.495 146.625,175.722 		"/>
		<polygon fill="#7A3DA0" points="195.148,305.813 180.396,320.556 195.056,335.217 195.147,335.126 		"/>
		<polygon fill="#703F9D" points="195.147,364.633 195.148,335.125 195.147,335.126 195.056,335.217 180.394,349.879 
			195.055,364.54 195.147,364.447 		"/>
		<polygon fill="#423183" points="195.147,364.447 195.055,364.54 180.394,379.201 195.147,393.955 195.147,364.633 		"/>
		<polygon fill="#5E1E62" points="195.147,393.955 239.225,349.879 195.154,305.807 195.149,305.812 		"/>
		<polygon fill="#5C3586" points="195.147,423.463 195.147,393.955 180.394,408.709 		"/>
		<polygon fill="#4B3D9D" points="169.768,379.416 169.768,342.883 151.501,361.15 		"/>
		<polygon fill="#A9347B" points="140.665,284.656 140.667,284.654 140.667,284.654 140.667,284.654 178.379,246.943 
			140.665,209.229 		"/>
		<polygon fill="#D43E86" points="178.29,203.482 178.29,203.482 178.29,203.481 178.291,203.482 178.328,203.445 178.29,171.604 
			140.665,209.229 178.379,246.943 178.29,203.482 		"/>
		<polygon fill="#84C28F" points="479.186,459.268 479.186,489.08 479.186,500 499.551,479.634 		"/>
		<polygon fill="#D43E86" points="441.471,451.366 479.186,489.08 479.096,413.741 		"/>
		<polygon fill="#5843A7" points="140.665,284.658 140.667,284.66 140.667,284.656 		"/>
		<polygon fill="#5843A7" points="140.668,284.655 154.793,298.78 154.794,271.757 154.793,270.53 		"/>
		<polygon fill="#792880" points="178.378,294.113 178.379,246.943 154.793,270.529 		"/>
		<polygon fill="#AC2775" points="213.671,239.029 201.688,251.012 201.688,246.567 211.454,236.801 208.047,233.378 
			201.688,239.737 201.688,235.291 205.829,231.149 202.422,227.727 201.688,228.461 201.688,226.99 193.922,219.188 
			193.724,262.78 215.491,240.857 		"/>
		<polygon fill="#A02264" points="216.641,220.338 215.491,219.188 215.495,221.484 		"/>
		<polygon fill="#A02264" points="218.864,222.561 215.502,225.923 215.514,232.741 221.734,226.52 221.733,230.966 
			215.521,237.179 215.532,243.998 221.733,237.795 221.734,242.242 215.539,248.437 215.55,255.257 221.735,249.072 
			221.733,253.518 215.558,259.693 215.6,285.354 215.6,285.374 245.169,255.804 245.21,255.763 248.641,252.332 245.244,248.936 
			245.244,248.947 		"/>
		<polygon fill="#912271" points="215.537,259.714 202.946,272.305 215.589,285.363 215.6,285.374 215.6,285.354 		"/>
		<polygon fill="#912271" points="215.526,255.28 215.51,248.466 201.688,262.287 201.688,257.842 215.499,244.03 215.491,240.857 
			193.724,262.78 201.689,271.007 201.689,269.117 		"/>
		<polygon fill="#7C1F6F" points="215.589,285.363 202.944,272.307 201.688,273.563 201.689,271.012 178.379,246.943 
			178.479,322.471 180.396,320.556 195.148,305.813 195.149,305.812 195.154,305.807 195.16,305.801 215.6,285.374 		"/>
		<path fill="#3342A2" d="M140.667,284.654L140.667,284.654L140.667,284.654v0.002v0.004l0.119,75.441l37.664-37.664l-23.657-23.657
			L140.667,284.654L140.667,284.654z M149.551,344.621l-5.088,5.088l0.021-6.089l5.072-5.072L149.551,344.621z M149.551,335.305
			l-5.088,5.088l0.021-6.089l5.072-5.072L149.551,335.305z M149.552,325.988l-5.089,5.088l0.021-6.089l5.072-5.072L149.552,325.988z
			"/>
		<polygon fill="#2E4497" points="140.788,360.102 140.889,396.787 167.334,423.23 167.233,386.547 		"/>
		<polygon fill="#BC3E66" points="220.304,205.4 216.889,201.985 215.536,203.338 215.517,210.187 		"/>
		<polygon fill="#BC3E66" points="221.733,208.415 215.504,214.645 215.491,219.188 216.641,220.338 221.733,215.246 
			221.734,219.691 218.864,222.561 245.244,248.947 245.244,248.936 245.244,230.341 221.733,206.83 		"/>
		<polygon fill="#5648A9" points="154.793,270.529 154.793,270.53 154.794,271.757 154.814,298.764 178.472,322.422 
			178.378,294.113 		"/>
		<polygon fill="#A72145" points="287.697,228.748 287.697,228.752 287.326,228.381 287.329,229.121 287.381,243.594 
			300.271,256.484 300.217,241.27 		"/>
		<polygon fill="#5F977C" points="21.713,264.728 8.821,251.835 8.876,267.052 21.767,279.942 		"/>
		<polygon fill="#314F9F" points="62.643,436.464 62.683,447.199 71.777,456.294 71.737,445.558 		"/>
		<polygon fill="#D37020" points="397.524,82.067 397.564,92.803 406.659,101.897 406.619,91.161 		"/>
		<polygon fill="#8F1F60" points="245.159,309.218 245.169,309.228 258.049,322.201 258.049,306.986 245.169,294.105 
			245.159,294.096 		"/>
		<polygon fill="#8D1C4D" points="275.51,299.391 275.543,308.756 283.478,316.689 283.444,307.326 		"/>
		<polygon fill="#B1273E" points="263.098,180.284 215.408,132.595 215.493,166.297 215.491,166.295 215.491,189.582 
			215.525,198.907 221.733,192.7 221.733,194.451 245.244,170.94 245.244,230.34 256.082,241.179 256.082,216.325 265.645,206.773 
			265.645,206.698 251.165,192.218 		"/>
		<polygon fill="#B1273E" points="215.406,166.21 215.407,166.364 215.484,166.288 		"/>
		<polygon fill="#D15026" points="178.304,129.108 215.406,166.21 215.484,166.288 215.491,166.28 215.491,166.295 215.493,166.297 
			215.408,132.595 215.368,116.944 215.351,110.004 207.235,101.889 197.652,92.306 178.296,72.949 178.304,129.092 		"/>
		<polygon fill="#B3D143" points="36.163,198.475 36.163,184.531 26.962,193.73 26.925,207.712 		"/>
		<polygon fill="#C73274" points="193.922,219.188 178.29,203.482 178.379,246.943 193.724,262.78 		"/>
		<polygon fill="#C73274" points="178.29,203.481 178.29,203.482 178.291,203.482 		"/>
		<polygon fill="#BA2E67" points="216.889,201.985 220.304,205.4 221.733,203.97 221.733,206.83 245.244,230.341 245.244,230.34 
			245.244,170.94 221.733,194.451 221.733,197.141 		"/>
		<polygon fill="#B5214A" points="287.697,228.752 287.697,228.748 287.697,155.704 287.697,155.683 282.891,160.49 282.881,160.5 
			273.004,170.377 272.994,170.387 263.117,180.265 263.098,180.284 251.165,192.218 265.645,206.698 265.719,206.772 
			287.326,228.381 		"/>
		<polygon fill="#D25D1D" points="145.768,168.341 146.604,169.177 146.625,175.721 160.398,189.494 160.397,153.712 		"/>
		<polygon fill="#D25D1D" points="141.073,156.026 140.64,156.46 137.263,159.837 144.293,166.866 144.293,159.246 		"/>
		<polygon fill="#CA3732" points="138.643,175.458 135.792,172.606 135.792,178.309 		"/>
		<polygon fill="#5F1D62" points="241.251,351.893 241.251,420.313 246.81,414.755 246.81,414.742 246.81,384.008 246.81,322.472 
			245.169,324.11 241.251,328.023 		"/>
		<polygon fill="#E5C238" points="120.495,70.489 120.494,45.672 114.936,51.224 114.936,64.838 114.936,122.604 120.495,117.046 		
			"/>
		<polygon fill="#FFFFFF" points="144.463,331.076 149.552,325.988 149.556,319.915 144.483,324.987 		"/>
		<polygon fill="#FFFFFF" points="144.463,340.393 149.551,335.305 149.556,329.231 144.483,334.304 		"/>
		<polygon fill="#FFFFFF" points="144.463,349.709 149.551,344.621 149.556,338.548 144.483,343.62 		"/>
		<polygon fill="#C53074" points="256.082,241.179 256.082,241.179 256.082,283.23 256.082,297.342 265.649,287.775 
			265.648,273.715 265.648,250.745 265.646,206.771 265.645,206.773 256.082,216.325 		"/>
		<polygon fill="#DACC3C" points="491.551,313.934 500,305.485 500,186.931 491.551,195.37 		"/>
		<path fill="#A8AB33" d="M51.782,210.98l0.097-0.097l32.855-32.852l4.902-4.902v-31.985V116.27v-0.272L51.881,153.69l-0.002,1.134
			L51.782,210.98z M63.298,185.89l0.001-22.903l11.451,11.452v-22.902l11.45,11.45l-11.45,11.452L63.298,185.89l-11.451,11.452
			v-22.902L63.298,185.89z"/>
		<polygon fill="#E8DE3F" points="86.2,162.986 74.75,151.536 74.75,174.438 		"/>
		<polygon fill="#CBDD43" points="63.299,162.986 63.298,185.89 74.75,174.438 		"/>
		<polygon fill="#E8DE3F" points="51.847,197.341 63.298,185.89 51.847,174.439 		"/>
		<polygon fill="#C42F73" points="202.422,227.727 205.829,231.149 215.491,221.487 215.491,219.188 215.491,214.657 		"/>
		<polygon fill="#C42F73" points="213.671,239.029 215.491,240.857 215.491,237.208 		"/>
		<polygon fill="#C42F73" points="215.491,232.764 215.491,225.934 208.047,233.378 211.454,236.801 		"/>
		<polygon fill="#C42F73" points="215.491,166.28 215.484,166.288 215.407,166.364 178.328,203.445 178.291,203.482 178.29,203.482 
			178.29,203.482 178.29,203.482 193.922,219.188 193.922,219.188 201.688,226.99 201.688,224.015 215.491,210.212 215.491,203.383 
			201.688,217.186 201.688,212.741 215.491,198.94 215.491,189.582 215.491,166.295 		"/>
		<polygon fill="#FFFFFF" points="146.603,125.454 140.64,119.491 136.016,114.867 134.699,113.55 134.701,116.182 134.709,127.801 
			140.64,133.731 146.65,139.742 		"/>
		<polygon fill="#FFFFFF" points="144.293,159.246 146.65,161.604 146.629,155.143 146.614,150.486 146.604,147.315 140.64,141.352 
			134.699,135.411 134.71,149.663 140.64,155.593 141.073,156.026 		"/>
		<polygon fill="#FFFFFF" points="146.625,175.722 146.625,175.721 146.604,169.177 145.768,168.341 145.764,168.337 
			144.293,166.866 137.263,159.837 134.699,157.273 134.71,171.524 135.792,172.606 138.643,175.458 140.64,177.454 
			140.675,177.489 146.65,183.465 		"/>
		<polygon fill="#FFFFFF" points="215.537,259.714 215.558,259.693 221.733,253.518 221.735,249.072 215.55,255.257 215.526,255.28 
			201.689,269.117 201.689,271.007 201.689,271.012 201.688,273.563 202.944,272.307 202.946,272.305 		"/>
		<polygon fill="#FFFFFF" points="201.688,257.842 201.688,262.287 215.51,248.466 215.539,248.437 221.734,242.242 
			221.733,237.795 215.532,243.998 215.499,244.03 		"/>
		<polygon fill="#FFFFFF" points="201.688,212.741 201.688,217.186 215.491,203.383 215.536,203.338 216.889,201.985 
			221.733,197.141 221.733,194.451 221.733,192.7 215.525,198.907 215.491,198.94 		"/>
		<polygon fill="#FFFFFF" points="211.454,236.801 201.688,246.567 201.688,251.012 213.671,239.029 215.491,237.208 
			215.521,237.179 221.733,230.966 221.734,226.52 215.514,232.741 215.491,232.764 		"/>
		<polygon fill="#FFFFFF" points="202.422,227.727 215.491,214.657 215.504,214.645 221.733,208.415 221.733,206.83 221.733,203.97 
			220.304,205.4 215.517,210.187 215.491,210.212 201.688,224.015 201.688,226.99 201.688,228.461 		"/>
		<polygon fill="#FFFFFF" points="215.491,221.487 205.829,231.149 201.688,235.291 201.688,239.737 208.047,233.378 
			215.491,225.934 215.502,225.923 218.864,222.561 221.734,219.691 221.733,215.246 216.641,220.338 215.495,221.484 		"/>
		<polygon fill="#FFFFFF" points="86.757,288.025 84.82,286.089 77.402,278.672 74.059,275.328 74.047,278.154 75.983,280.091 
			84.821,288.928 86.745,290.853 		"/>
		<polygon fill="#FFFFFF" points="84.82,281.729 86.773,283.682 86.785,280.854 84.82,278.889 81.003,275.071 74.089,268.157 
			74.077,270.984 79.583,276.491 		"/>
		<polygon fill="#FFFFFF" points="77.88,243.148 74.205,239.475 74.193,242.298 76.462,244.566 84.733,252.838 86.892,254.996 
			86.903,252.168 84.733,249.999 		"/>
		<polygon fill="#FFFFFF" points="84.82,274.527 86.803,276.51 86.815,273.683 84.82,271.688 84.604,271.471 74.117,260.985 
			74.105,263.813 83.184,272.891 		"/>
		<polygon fill="#FFFFFF" points="74.281,246.748 74.176,246.643 74.175,246.854 74.165,249.47 84.733,260.038 86.862,262.167 
			86.873,259.34 84.733,257.2 		"/>
		<polygon fill="#FFFFFF" points="74.146,253.813 74.135,256.641 84.733,267.24 86.832,269.339 86.845,266.512 84.733,264.4 		"/>
	</g>
</g>
<text transform="matrix(1 0 0 1 373.5293 261.416)" fill="#001F6B" font-family="'Montserrat-Bold'" font-size="12">M</text>
<text transform="matrix(1 0 0 1 386.4043 261.416)" fill="#001F6B" font-family="'Montserrat-Bold'" font-size="12"> </text>
<text transform="matrix(1 0 0 1 392.1895 261.416)" fill="#001F6B" font-family="'Montserrat-Bold'" font-size="12">A</text>
<text transform="matrix(1 0 0 1 402.7734 261.416)" fill="#001F6B" font-family="'Montserrat-Bold'" font-size="12"> </text>
<text transform="matrix(1 0 0 1 408.5449 261.416)" fill="#001F6B" font-family="'Montserrat-Bold'" font-size="12">I</text>
<text transform="matrix(1 0 0 1 414.6406 261.416)" fill="#001F6B" font-family="'Montserrat-Bold'" font-size="12"> </text>
<text transform="matrix(1 0 0 1 420.4238 261.416)" fill="#001F6B" font-family="'Montserrat-Bold'" font-size="12">L</text>
<text transform="matrix(1 0 0 1 429.3164 261.416)" fill="#001F6B" font-family="'Montserrat-Bold'" font-size="12"> </text>
<text transform="matrix(1 0 0 1 435.0996 261.416)" fill="#001F6B" font-family="'Montserrat-Bold'" font-size="12">E</text>
<text transform="matrix(1 0 0 1 444.2324 261.416)" fill="#001F6B" font-family="'Montserrat-Bold'" font-size="12"> </text>
<text transform="matrix(1 0 0 1 450.0156 261.416)" fill="#001F6B" font-family="'Montserrat-Bold'" font-size="12">R</text>
<text transform="matrix(1 0 0 1 390.6367 246.4409)" fill="#AE1E74" font-family="'Montserrat-Bold'" font-size="13">B</text>
<text transform="matrix(1 0 0 1 404.248 246.4409)" fill="#AE1E74" font-family="'Montserrat-Bold'" font-size="13">U</text>
<text transform="matrix(1 0 0 1 419.2109 246.4409)" fill="#AE1E74" font-family="'Montserrat-Bold'" font-size="13">L</text>
<text transform="matrix(1 0 0 1 431.8984 246.4409)" fill="#AE1E74" font-family="'Montserrat-Bold'" font-size="13">K</text>
</svg>
